<svg width="243" height="212" viewBox="0 0 243 212" fill="none" xmlns="http://www.w3.org/2000/svg">
<path d="M54.2219 74.6857C54.3207 74.1531 54.6681 73.8819 55.2639 73.872L55.8191 73.8718C55.8805 73.866 55.932 73.8669 55.9736 73.8746C56.0235 73.8839 56.0693 73.8924 56.1109 73.9001C56.6185 73.9944 56.864 74.3412 56.8474 74.9407C56.8281 75.2298 56.8033 75.5954 56.7729 76.0373C56.7425 76.4793 56.7168 76.9652 56.6959 77.4951C56.6834 78.0264 56.6745 78.5843 56.6693 79.1687C56.6724 79.7546 56.6896 80.3346 56.7207 80.9085C56.7535 81.4741 56.8075 82.0178 56.8827 82.5397C56.958 83.0616 57.0649 83.529 57.2034 83.9421C57.3419 84.3552 57.511 84.6965 57.7106 84.9659C57.9201 85.2287 58.1704 85.387 58.4617 85.4411C58.6697 85.4797 58.8893 85.4559 59.1205 85.3697C59.3601 85.2851 59.6024 85.1622 59.8475 85.0011C60.0941 84.8317 60.3371 84.6358 60.5764 84.4134C60.8157 84.1909 61.0391 83.9613 61.2466 83.7243C61.4542 83.4874 61.6428 83.2599 61.8124 83.0417C61.9919 82.8168 62.1361 82.6198 62.2449 82.4506C62.3242 82.3018 62.3762 82.1608 62.4009 82.0276C62.4133 81.9611 62.4215 81.8937 62.4255 81.8256C62.4296 81.7575 62.4302 81.6844 62.4275 81.6065C62.3652 81.0612 62.3403 80.5228 62.3529 79.9915C62.3654 79.4601 62.4273 78.8948 62.5386 78.2957C62.6035 77.9462 62.6967 77.6063 62.8183 77.2759C62.9399 76.9456 63.0977 76.6521 63.2917 76.3954C63.3944 76.2595 63.5306 76.1514 63.7005 76.071C63.8704 75.9906 64.0489 75.9334 64.236 75.8993C64.4314 75.8667 64.6271 75.8557 64.8232 75.8663C65.029 75.87 65.2152 75.8874 65.3816 75.9183C65.5647 75.9523 65.7242 76.0206 65.8601 76.1233C65.9975 76.2177 66.109 76.3589 66.1946 76.547C66.3689 76.9064 66.4639 77.2985 66.4798 77.7233C66.5039 78.1496 66.4774 78.5707 66.4001 78.9868C66.3167 79.4362 66.1894 79.8903 66.0181 80.3491C65.8484 80.7997 65.662 81.2471 65.459 81.6915C65.3791 81.7972 65.326 81.9208 65.2998 82.0622C65.2874 82.1288 65.2826 82.2011 65.2853 82.2791C65.2964 82.3586 65.3101 82.4472 65.3264 82.5449C65.4035 82.9638 65.5041 83.3957 65.6281 83.8405C65.762 84.2786 65.932 84.6846 66.138 85.0586C66.344 85.4325 66.5942 85.7544 66.8884 86.0243C67.1826 86.2941 67.5419 86.4684 67.9663 86.5472C68.3408 86.6167 68.7072 86.5212 69.0654 86.2606C69.4237 86 69.7475 85.6469 70.0368 85.2013C70.3345 84.7573 70.5899 84.2624 70.8031 83.7167C71.0179 83.1626 71.1732 82.6276 71.269 82.1116C71.3709 81.5624 71.4506 81.0177 71.5078 80.4774C71.5651 79.9371 71.6021 79.4361 71.619 78.9744C71.6101 78.9297 71.6095 78.8865 71.6172 78.8449C71.6249 78.8033 71.6327 78.7617 71.6404 78.7201C71.7284 78.2458 72.0425 77.9684 72.5825 77.8879L73.179 77.8049C73.3464 77.7844 73.4966 77.7864 73.6298 77.8111C74.0708 77.893 74.2861 78.2171 74.2757 78.7833C74.2714 79.3162 74.2464 79.8452 74.2005 80.3704C74.163 80.8972 74.0963 81.4185 74.0005 81.9344C73.7966 83.0328 73.4761 84.0407 73.0389 84.9581C72.6017 85.8755 72.0829 86.6529 71.4825 87.2904C70.892 87.921 70.2419 88.3857 69.5322 88.6844C68.8226 88.983 68.0891 89.062 67.3319 88.9215C66.5913 88.784 65.8874 88.4252 65.2204 87.8451C64.5549 87.2567 64.0088 86.4193 63.5821 85.3329C63.5058 85.095 63.3927 84.9621 63.2429 84.9343C63.1015 84.908 62.9524 84.9922 62.7957 85.1869C62.4087 85.6488 61.9995 86.0678 61.5681 86.4439C61.1383 86.8118 60.6985 87.1175 60.2487 87.3611C59.7988 87.6047 59.3455 87.7745 58.8887 87.8704C58.4319 87.9664 57.9871 87.9742 57.5544 87.8939C56.8554 87.7641 56.2751 87.4584 55.8136 86.9767C55.3589 86.5049 54.9947 85.9165 54.721 85.2115C54.4556 84.508 54.2655 83.7238 54.1506 82.8588C54.0373 81.9856 53.971 81.0909 53.9517 80.1749C53.9422 79.2521 53.9619 78.3346 54.0107 77.4226C54.0678 76.5122 54.1266 75.6623 54.1871 74.8729L54.2219 74.6857ZM76.4163 77.8249C76.5831 76.9262 77.249 76.585 78.414 76.8013C78.6137 76.8384 78.7784 76.9249 78.9081 77.0609C79.0378 77.1969 79.0974 77.3629 79.0868 77.5589C79.0675 78.0804 79.0406 78.5962 79.0061 79.1063C78.9717 79.6164 78.9215 80.1881 78.8556 80.8215C78.7995 81.4481 78.7207 82.1738 78.6192 82.9985C78.5276 83.8165 78.4108 84.7934 78.2689 85.9291C78.2472 86.0456 78.2484 86.1319 78.2724 86.188C78.3048 86.2457 78.3459 86.2791 78.3958 86.2884C78.4707 86.3023 78.5595 86.2413 78.6622 86.1054C79.061 85.5339 79.4807 85.035 79.9214 84.609C80.3636 84.1746 80.816 83.8239 81.2788 83.5568C81.7431 83.2815 82.212 83.0974 82.6855 83.0045C83.1688 82.9049 83.6435 82.8983 84.1095 82.9848C84.7253 83.0992 85.2504 83.3774 85.6848 83.8196C86.1192 84.2618 86.4516 84.8357 86.6822 85.5413C86.9127 86.247 87.0387 87.0752 87.0601 88.0261C87.0831 88.9687 86.9904 90.0016 86.7818 91.125C86.7246 91.4329 86.6525 91.6821 86.5655 91.8725C86.4884 92.0562 86.3849 92.1962 86.2551 92.2926C86.1253 92.3891 85.9609 92.4403 85.7617 92.4464C85.5611 92.4608 85.3193 92.4417 85.0364 92.3892C84.6453 92.3166 84.3762 92.1891 84.2293 92.0069C84.0907 91.8262 84.0507 91.5778 84.1094 91.2616C84.2546 90.4794 84.3373 89.7329 84.3573 89.0221C84.3872 88.3046 84.3593 87.6667 84.2736 87.1085C84.1879 86.5503 84.0487 86.094 83.8563 85.7398C83.6721 85.3871 83.4386 85.1845 83.1556 85.132C82.5149 85.013 81.7776 85.4141 80.9437 86.3353C80.1182 87.2581 79.1654 88.7038 78.0855 90.6726C77.9834 90.8516 77.8791 90.9958 77.7727 91.1052C77.6663 91.2146 77.5479 91.2959 77.4175 91.3491C77.2955 91.404 77.153 91.4292 76.9903 91.4248C76.826 91.4287 76.6357 91.4106 76.4193 91.3704C75.9783 91.2885 75.6775 91.1466 75.5171 90.9447C75.3649 90.7442 75.316 90.4511 75.3704 90.0652C75.5893 88.6081 75.7542 87.2097 75.8652 85.8702C75.986 84.524 76.0746 83.3051 76.1309 82.2137C76.197 81.1156 76.2447 80.1861 76.2741 79.4254C76.3132 78.658 76.3606 78.1245 76.4163 77.8249ZM98.1284 83.0051C98.5861 83.0901 99.014 83.2427 99.4121 83.4629C99.8103 83.6832 100.148 83.9483 100.427 84.2581C100.705 84.568 100.907 84.9155 101.034 85.3005C101.168 85.6871 101.196 86.0926 101.118 86.517C101.085 86.6917 101.012 86.8546 100.898 87.0056C100.794 87.1498 100.663 87.2719 100.507 87.372C100.352 87.4638 100.181 87.5309 99.9919 87.5734C99.8131 87.609 99.6322 87.6099 99.4491 87.5759C99.4325 87.5728 99.415 87.5739 99.3969 87.5791C99.3885 87.5776 99.3761 87.5752 99.3594 87.5721C99.3412 87.5774 99.3238 87.5784 99.3072 87.5754L99.1717 88.5832C98.9841 89.7793 98.9891 90.6798 99.1867 91.2846C99.3926 91.891 99.741 92.2398 100.232 92.3309C100.407 92.3634 100.564 92.3753 100.703 92.3667C100.851 92.3597 100.987 92.3462 101.111 92.3262C101.245 92.2995 101.369 92.2795 101.484 92.2663C101.598 92.2531 101.709 92.2565 101.817 92.2766C102.009 92.3121 102.16 92.4263 102.27 92.6189C102.389 92.8132 102.427 93.0268 102.384 93.2598C102.34 93.4928 102.206 93.7088 101.979 93.9078C101.761 94.1084 101.489 94.2773 101.162 94.4146C100.837 94.5436 100.48 94.6324 100.093 94.6809C99.7049 94.7294 99.3238 94.7189 98.9493 94.6494C98.3003 94.5289 97.7797 94.1568 97.3876 93.5331C96.9971 92.901 96.7943 92.0456 96.7794 90.9668C96.7604 90.7911 96.7093 90.6956 96.6261 90.6801C96.5262 90.6616 96.4296 90.6953 96.3361 90.7812C95.3192 91.6685 94.2961 92.2877 93.2668 92.6389C92.239 92.9818 91.2716 93.069 90.3645 92.9006C89.9402 92.8218 89.569 92.6884 89.251 92.5002C88.933 92.312 88.6742 92.0832 88.4746 91.8137C88.2848 91.5375 88.1535 91.2247 88.0806 90.8755C88.0176 90.5195 88.0239 90.1376 88.0996 89.7298C88.2062 89.1557 88.443 88.5755 88.8101 87.9895C89.1855 87.4049 89.6467 86.8449 90.1937 86.3095C90.7407 85.774 91.3489 85.2801 92.0183 84.8276C92.696 84.3767 93.3863 83.997 94.0892 83.6884C94.8004 83.3815 95.5037 83.1634 96.1991 83.0343C96.8945 82.9051 97.5376 82.8954 98.1284 83.0051ZM96.9147 87.2474C97.117 86.9923 97.2922 86.8139 97.4402 86.7123C97.5897 86.6023 97.7849 86.5481 98.0256 86.5498C98.2133 86.5588 98.3156 86.5175 98.3326 86.426C98.345 86.3594 98.3332 86.2841 98.2971 86.1999C98.1792 85.9542 98.0475 85.7361 97.9021 85.5455C97.7583 85.3467 97.5407 85.2202 97.2495 85.1661C96.9333 85.1074 96.5626 85.1333 96.1375 85.2437C95.7124 85.3542 95.2674 85.5255 94.8025 85.7577C94.3475 85.9831 93.8881 86.2551 93.4244 86.5736C92.9705 86.8853 92.556 87.2172 92.1807 87.5693C91.8055 87.9215 91.4892 88.2803 91.232 88.6457C90.9748 89.0111 90.8168 89.3519 90.7581 89.6682C90.7056 89.9511 90.7395 90.1855 90.8599 90.3714C90.9887 90.5589 91.1862 90.6773 91.4525 90.7268C92.1348 90.8534 92.9468 90.6297 93.8884 90.0556C94.83 89.4815 95.8387 88.5455 96.9147 87.2474ZM106.306 80.895C106.388 80.454 106.57 80.1693 106.852 80.0409C107.136 79.9041 107.565 79.8891 108.139 79.9957C108.347 80.0343 108.518 80.0876 108.652 80.1554C108.795 80.2165 108.908 80.3063 108.989 80.4247C109.079 80.5446 109.137 80.6932 109.164 80.8704C109.202 81.0409 109.218 81.2548 109.213 81.5122C109.169 82.3046 109.129 83.1235 109.093 83.969C109.065 84.816 109.04 85.6679 109.019 86.5247C108.999 86.9085 109.16 87.132 109.501 87.1953C109.592 87.2123 109.744 87.2318 109.955 87.2538C110.176 87.269 110.434 87.2912 110.73 87.3203C111.028 87.3411 111.346 87.3657 111.685 87.3942C112.032 87.4243 112.375 87.4577 112.712 87.4945C113.06 87.5246 113.385 87.5591 113.687 87.5981C114 87.6303 114.272 87.668 114.505 87.7113C114.689 87.7453 114.827 87.8097 114.921 87.9047C115.017 87.9914 115.084 88.0984 115.12 88.2257C115.167 88.3462 115.185 88.4788 115.175 88.6233C115.176 88.7611 115.163 88.9007 115.136 89.0422C115.113 89.167 115.064 89.2913 114.99 89.4152C114.923 89.5406 114.839 89.6497 114.735 89.7424C114.642 89.8284 114.531 89.8938 114.402 89.9388C114.273 89.9837 114.134 89.9923 113.984 89.9645C113.26 89.8301 112.523 89.7191 111.773 89.6315C111.033 89.5372 110.29 89.4594 109.544 89.3984C109.16 89.3788 108.938 89.5313 108.878 89.8558C108.873 89.8808 108.871 89.9148 108.872 89.958C108.874 89.9928 108.873 90.0227 108.868 90.0477C108.834 90.7902 108.799 91.4853 108.765 92.1332C108.739 92.7826 108.709 93.3624 108.674 93.8725C108.65 94.3758 108.623 94.797 108.595 95.136C108.576 95.4683 108.557 95.6885 108.537 95.7967C108.481 96.0962 108.406 96.3405 108.31 96.5294C108.213 96.7266 108.087 96.8752 107.931 96.9753C107.773 97.0838 107.577 97.1421 107.343 97.1503C107.116 97.1684 106.836 97.1465 106.503 97.0847C106.187 97.026 105.967 96.9079 105.846 96.7303C105.724 96.5527 105.683 96.3084 105.723 95.9974C105.856 95.0062 105.96 94.0055 106.035 92.9952C106.113 91.9765 106.172 90.9589 106.215 89.9424C106.206 89.5707 106.052 89.357 105.753 89.3014C105.728 89.2968 105.698 89.2955 105.663 89.2977C105.628 89.2998 105.598 89.2986 105.573 89.2939C105.036 89.3147 104.527 89.3408 104.048 89.3723C103.569 89.4038 103.117 89.4491 102.693 89.5081C102.454 89.5413 102.245 89.5583 102.064 89.5591C101.884 89.5516 101.724 89.5348 101.582 89.5085C101.391 89.473 101.265 89.3635 101.204 89.1801C101.145 88.9883 101.14 88.7635 101.188 88.5055C101.205 88.414 101.232 88.3115 101.27 88.1981C101.31 88.0764 101.366 87.9619 101.437 87.8547C101.502 87.7376 101.59 87.6376 101.7 87.5547C101.803 87.462 101.936 87.3962 102.098 87.3575C102.474 87.2809 102.967 87.2218 103.577 87.1802C104.189 87.1302 104.873 87.1066 105.63 87.1094C105.804 87.0987 105.946 87.0561 106.054 86.9816C106.173 86.9002 106.25 86.7639 106.285 86.5725C106.293 86.5309 106.301 86.4893 106.308 86.4477C106.318 86.3977 106.319 86.3463 106.311 86.2933C106.32 85.503 106.32 84.7842 106.311 84.1369C106.312 83.4829 106.309 82.9227 106.3 82.4563C106.301 81.9915 106.3 81.6255 106.298 81.3583C106.296 81.091 106.299 80.9366 106.306 80.895ZM128.834 88.7058C129.292 88.7908 129.72 88.9434 130.118 89.1636C130.516 89.3839 130.854 89.649 131.132 89.9589C131.411 90.2688 131.613 90.6162 131.739 91.0012C131.874 91.3878 131.902 91.7933 131.823 92.2177C131.791 92.3924 131.718 92.5553 131.604 92.7063C131.499 92.8505 131.369 92.9726 131.213 93.0727C131.058 93.1645 130.886 93.2316 130.698 93.2741C130.519 93.3097 130.338 93.3106 130.155 93.2766C130.138 93.2735 130.121 93.2746 130.103 93.2798C130.094 93.2783 130.082 93.276 130.065 93.2729C130.047 93.2781 130.03 93.2792 130.013 93.2761L129.877 94.2839C129.69 95.48 129.695 96.3805 129.892 96.9853C130.098 97.5917 130.447 97.9405 130.938 98.0316C131.112 98.0641 131.27 98.076 131.409 98.0674C131.556 98.0604 131.692 98.0469 131.817 98.0269C131.951 98.0002 132.075 97.9802 132.189 97.967C132.304 97.9538 132.415 97.9572 132.523 97.9773C132.715 98.0129 132.865 98.127 132.976 98.3197C133.095 98.5139 133.133 98.7275 133.09 98.9605C133.046 99.1935 132.911 99.4095 132.685 99.6085C132.467 99.8091 132.195 99.978 131.868 100.115C131.543 100.244 131.186 100.333 130.798 100.382C130.411 100.43 130.03 100.42 129.655 100.35C129.006 100.23 128.485 99.8575 128.093 99.2338C127.703 98.6018 127.5 97.7463 127.485 96.6675C127.466 96.4919 127.415 96.3963 127.332 96.3808C127.232 96.3623 127.135 96.396 127.042 96.4819C126.025 97.3692 125.002 97.9884 123.973 98.3396C122.945 98.6825 121.977 98.7697 121.07 98.6014C120.646 98.5226 120.275 98.3891 119.957 98.2009C119.639 98.0128 119.38 97.7839 119.18 97.5145C118.991 97.2382 118.859 96.9255 118.786 96.5762C118.723 96.2202 118.73 95.8383 118.805 95.4305C118.912 94.8564 119.149 94.2762 119.516 93.6902C119.891 93.1056 120.352 92.5457 120.899 92.0102C121.447 91.4748 122.055 90.9808 122.724 90.5283C123.402 90.0774 124.092 89.6977 124.795 89.3892C125.506 89.0822 126.209 88.8641 126.905 88.735C127.6 88.6058 128.243 88.5961 128.834 88.7058ZM127.62 92.9481C127.823 92.693 127.998 92.5146 128.146 92.413C128.295 92.303 128.491 92.2488 128.731 92.2505C128.919 92.2595 129.021 92.2183 129.038 92.1267C129.051 92.0602 129.039 91.9848 129.003 91.9006C128.885 91.6549 128.753 91.4368 128.608 91.2462C128.464 91.0474 128.246 90.9209 127.955 90.8668C127.639 90.8081 127.268 90.834 126.843 90.9445C126.418 91.0549 125.973 91.2262 125.508 91.4584C125.053 91.6838 124.594 91.9558 124.13 92.2743C123.676 92.586 123.262 92.9179 122.886 93.2701C122.511 93.6222 122.195 93.981 121.938 94.3464C121.681 94.7118 121.523 95.0527 121.464 95.3689C121.411 95.6518 121.445 95.8862 121.566 96.0721C121.694 96.2596 121.892 96.378 122.158 96.4275C122.841 96.5542 123.653 96.3305 124.594 95.7564C125.536 95.1823 126.545 94.2462 127.62 92.9481ZM141.673 92.7164C141.365 92.6592 141.08 92.6923 140.816 92.8154C140.553 92.9303 140.312 93.1179 140.091 93.3782C139.872 93.6302 139.673 93.9418 139.492 94.3128C139.312 94.6755 139.147 95.0795 138.996 95.5248C138.844 95.9701 138.709 96.4401 138.592 96.9347C138.474 97.4294 138.368 97.9305 138.274 98.4381C138.15 99.1038 138.053 99.7659 137.983 100.424C137.922 101.076 137.841 101.676 137.739 102.225C137.672 102.583 137.487 102.837 137.184 102.987C136.879 103.146 136.481 103.18 135.99 103.089C135.899 103.072 135.796 103.044 135.683 103.006C135.569 102.967 135.463 102.913 135.364 102.843C135.274 102.775 135.195 102.687 135.129 102.58C135.07 102.483 135.05 102.359 135.069 102.207C135.13 101.461 135.161 100.692 135.162 99.9005C135.162 99.1086 135.125 98.314 135.049 97.5166C134.983 96.7124 134.87 95.9081 134.709 95.1035C134.557 94.3005 134.356 93.5057 134.106 92.719C134.063 92.5818 134.026 92.4545 133.996 92.337C133.975 92.2211 133.973 92.1133 133.992 92.0134C134.015 91.8886 134.094 91.7655 134.228 91.6441C134.373 91.5159 134.54 91.4049 134.729 91.311C134.927 91.2186 135.133 91.1535 135.347 91.1157C135.57 91.0711 135.777 91.0666 135.969 91.1021C136.285 91.1608 136.523 91.4331 136.682 91.9189C136.843 92.3964 136.939 93.133 136.969 94.1286C136.98 94.3027 136.992 94.4254 137.004 94.4966C137.017 94.5678 137.044 94.6073 137.086 94.615C137.177 94.632 137.262 94.5013 137.339 94.223C137.586 93.4511 137.882 92.8045 138.229 92.2835C138.577 91.7541 138.963 91.3396 139.389 91.0399C139.825 90.7334 140.292 90.536 140.79 90.4478C141.297 90.3611 141.833 90.3703 142.399 90.4753C142.724 90.5356 143.047 90.6257 143.369 90.7458C143.691 90.8658 143.975 91.0088 144.219 91.1748C144.464 91.3407 144.654 91.5223 144.789 91.7196C144.925 91.917 144.973 92.1197 144.935 92.3277C144.907 92.4775 144.84 92.6502 144.735 92.8459C144.64 93.0348 144.525 93.2156 144.389 93.3885C144.255 93.553 144.11 93.6895 143.952 93.7979C143.804 93.8996 143.663 93.938 143.53 93.9133C143.38 93.8855 143.242 93.8169 143.116 93.7074C142.992 93.5896 142.856 93.4653 142.708 93.3346C142.568 93.2054 142.415 93.0821 142.247 92.9649C142.089 92.841 141.898 92.7581 141.673 92.7164ZM153.366 101.718C153.646 101.555 153.903 101.495 154.136 101.538C154.269 101.563 154.383 101.618 154.479 101.705C154.575 101.792 154.676 101.918 154.783 102.084C154.872 102.299 154.931 102.473 154.957 102.607C154.994 102.735 155.001 102.856 154.98 102.973C154.933 103.223 154.765 103.437 154.473 103.615C154.012 103.874 153.524 104.093 153.008 104.273C152.494 104.444 151.967 104.574 151.425 104.663C150.883 104.752 150.334 104.792 149.776 104.783C149.216 104.782 148.67 104.733 148.138 104.634C147.464 104.509 146.848 104.304 146.289 104.019C145.729 103.743 145.246 103.404 144.838 103.001C144.439 102.6 144.123 102.149 143.888 101.65C143.656 101.142 143.524 100.597 143.495 100.014C143.463 99.7674 143.42 99.6045 143.366 99.5255C143.322 99.4398 143.229 99.3839 143.087 99.3576C142.779 99.3004 142.556 99.1815 142.418 99.0008C142.279 98.8201 142.236 98.5883 142.288 98.3054C142.31 98.1889 142.332 98.1156 142.355 98.0854L142.426 97.8404C142.524 97.5485 142.643 97.3468 142.784 97.2353C142.934 97.1254 143.137 97.0943 143.395 97.1422L143.583 97.177C143.932 97.2419 144.208 97.1252 144.409 96.8269C144.774 96.3006 145.2 95.8374 145.687 95.4372C146.175 95.0371 146.699 94.7169 147.26 94.4768C147.823 94.2283 148.404 94.065 149.004 93.987C149.614 93.9022 150.214 93.9147 150.805 94.0244C151.421 94.1387 151.978 94.3368 152.476 94.6188C152.985 94.8939 153.409 95.2267 153.75 95.6171C154.091 96.0074 154.334 96.4357 154.48 96.9018C154.634 97.3694 154.666 97.8487 154.575 98.3397C154.511 98.6808 154.387 98.9805 154.201 99.2387C154.015 99.497 153.778 99.7111 153.488 99.8811C153.2 100.043 152.864 100.157 152.482 100.224C152.107 100.292 151.692 100.305 151.235 100.263L146.822 99.8961C146.656 99.8652 146.511 99.8813 146.387 99.9444C146.272 100.009 146.201 100.112 146.175 100.254C146.135 100.47 146.175 100.693 146.296 100.922C146.426 101.152 146.609 101.371 146.846 101.579C147.092 101.78 147.382 101.958 147.715 102.115C148.055 102.273 148.413 102.386 148.787 102.456C149.145 102.522 149.518 102.557 149.904 102.56C150.301 102.556 150.695 102.522 151.086 102.457C151.485 102.393 151.876 102.302 152.26 102.184C152.645 102.057 153.014 101.902 153.366 101.718ZM151.181 97.9807C151.31 97.9789 151.429 97.9408 151.538 97.8662C151.648 97.7834 151.716 97.6712 151.742 97.5298C151.765 97.4049 151.741 97.2799 151.67 97.1548C151.598 97.0296 151.491 96.9107 151.349 96.7982C151.207 96.6773 151.038 96.5726 150.839 96.484C150.64 96.3954 150.424 96.3295 150.191 96.2863C149.85 96.2229 149.491 96.208 149.115 96.2414C148.738 96.2748 148.389 96.3477 148.067 96.4601C147.746 96.5641 147.476 96.699 147.256 96.8647C147.037 97.0221 146.91 97.1965 146.875 97.3879C146.839 97.5793 146.938 97.6966 147.171 97.7399C147.312 97.7661 147.544 97.792 147.867 97.8174C148.189 97.8428 148.546 97.8703 148.936 97.8997C149.328 97.9209 149.725 97.9386 150.127 97.953C150.529 97.9673 150.88 97.9766 151.181 97.9807ZM162.44 101.943C162.467 101.802 162.513 101.647 162.578 101.478C162.644 101.31 162.696 101.122 162.735 100.914C162.761 100.772 162.719 100.652 162.608 100.554C162.505 100.458 162.388 100.35 162.255 100.23C162.122 100.111 162.006 99.9691 161.908 99.8045C161.818 99.6414 161.797 99.4267 161.847 99.1604C161.882 98.969 161.968 98.7869 162.103 98.614C162.247 98.4427 162.433 98.2966 162.662 98.1755C163.221 97.9005 163.79 97.6661 164.368 97.4722C164.955 97.2798 165.529 97.1324 166.09 97.03C166.66 96.9292 167.213 96.8726 167.749 96.8602C168.285 96.8478 168.79 96.8856 169.264 96.9737C170.063 97.122 170.784 97.4108 171.427 97.8402C172.081 98.2627 172.617 98.7799 173.037 99.3916C173.467 99.9965 173.768 100.672 173.939 101.418C174.121 102.158 174.139 102.919 173.993 103.701C173.851 104.467 173.554 105.165 173.101 105.795C172.658 106.419 172.118 106.938 171.482 107.354C170.845 107.769 170.133 108.059 169.345 108.222C168.564 108.396 167.77 108.408 166.962 108.258C166.172 108.111 165.464 107.842 164.84 107.451C164.215 107.059 163.701 106.585 163.296 106.028C162.893 105.462 162.614 104.834 162.458 104.142C162.304 103.442 162.298 102.709 162.44 101.943ZM167.654 106.062C168.004 106.127 168.379 106.123 168.78 106.051C169.18 105.979 169.559 105.839 169.917 105.63C170.284 105.414 170.604 105.129 170.876 104.775C171.157 104.422 171.342 104.001 171.434 103.51C171.526 103.011 171.521 102.528 171.419 102.061C171.316 101.594 171.132 101.173 170.866 100.796C170.61 100.413 170.278 100.089 169.871 99.8238C169.472 99.5604 169.019 99.3816 168.512 99.2873C167.588 99.1158 166.836 99.2258 166.255 99.6173C165.676 100.001 165.295 100.687 165.111 101.677C165.011 102.218 164.996 102.736 165.068 103.232C165.149 103.72 165.304 104.162 165.532 104.558C165.761 104.944 166.054 105.27 166.409 105.534C166.773 105.799 167.188 105.976 167.654 106.062ZM178.231 104.591C178.024 105.706 178.035 106.599 178.263 107.27C178.492 107.941 178.93 108.336 179.58 108.457C179.987 108.532 180.384 108.481 180.77 108.303C181.164 108.127 181.527 107.846 181.857 107.459C182.187 107.073 182.473 106.597 182.716 106.03C182.968 105.458 183.16 104.822 183.289 104.123C183.368 103.698 183.42 103.329 183.443 103.015C183.469 102.693 183.483 102.407 183.486 102.158C183.499 101.902 183.507 101.675 183.509 101.478C183.512 101.28 183.529 101.094 183.561 100.919C183.611 100.653 183.759 100.482 184.005 100.408C184.253 100.325 184.622 100.329 185.113 100.42C185.737 100.536 186.194 100.767 186.482 101.113C186.779 101.461 186.878 101.905 186.777 102.446C186.504 103.919 186.112 105.215 185.603 106.334C185.103 107.455 184.505 108.377 183.811 109.1C183.128 109.817 182.362 110.325 181.514 110.624C180.667 110.923 179.769 110.984 178.82 110.808C178.146 110.683 177.548 110.425 177.027 110.036C176.512 109.656 176.093 109.178 175.769 108.602C175.456 108.018 175.247 107.36 175.142 106.626C175.039 105.884 175.064 105.096 175.219 104.264C175.278 103.948 175.348 103.613 175.432 103.258C175.515 102.903 175.611 102.525 175.72 102.123C175.83 101.713 175.955 101.272 176.095 100.798C176.243 100.327 176.402 99.814 176.574 99.2605C176.644 99.0238 176.792 98.8533 177.018 98.7489C177.253 98.6377 177.529 98.6115 177.846 98.6702C178.129 98.7227 178.389 98.8013 178.628 98.9059C178.867 99.0105 179.065 99.1289 179.221 99.2612C179.385 99.3951 179.505 99.5378 179.58 99.6895C179.664 99.8427 179.692 99.9943 179.664 100.144C179.636 100.294 179.559 100.525 179.432 100.837C179.315 101.142 179.18 101.496 179.028 101.898C178.886 102.294 178.737 102.727 178.581 103.197C178.434 103.66 178.318 104.125 178.231 104.591ZM195.296 102.672C194.988 102.615 194.702 102.648 194.438 102.771C194.176 102.886 193.935 103.073 193.714 103.334C193.495 103.586 193.295 103.897 193.114 104.268C192.935 104.631 192.77 105.035 192.618 105.48C192.467 105.926 192.332 106.396 192.215 106.89C192.097 107.385 191.991 107.886 191.897 108.394C191.773 109.059 191.676 109.721 191.605 110.38C191.545 111.031 191.463 111.632 191.361 112.181C191.295 112.539 191.11 112.793 190.807 112.943C190.502 113.101 190.104 113.135 189.613 113.044C189.521 113.027 189.419 112.999 189.306 112.961C189.192 112.923 189.086 112.869 188.987 112.799C188.896 112.73 188.818 112.643 188.752 112.536C188.692 112.438 188.672 112.314 188.692 112.163C188.753 111.417 188.784 110.648 188.784 109.856C188.785 109.064 188.748 108.269 188.672 107.472C188.606 106.668 188.493 105.863 188.332 105.059C188.18 104.256 187.979 103.461 187.729 102.674C187.686 102.537 187.649 102.41 187.619 102.292C187.598 102.177 187.596 102.069 187.615 101.969C187.638 101.844 187.717 101.721 187.851 101.599C187.995 101.471 188.162 101.36 188.352 101.266C188.55 101.174 188.756 101.109 188.969 101.071C189.193 101.027 189.4 101.022 189.592 101.058C189.908 101.116 190.146 101.388 190.305 101.874C190.466 102.352 190.562 103.088 190.592 104.084C190.603 104.258 190.614 104.381 190.627 104.452C190.64 104.523 190.667 104.563 190.708 104.57C190.8 104.587 190.884 104.457 190.962 104.178C191.209 103.406 191.505 102.76 191.851 102.239C192.199 101.71 192.586 101.295 193.012 100.995C193.448 100.689 193.915 100.491 194.413 100.403C194.92 100.316 195.456 100.326 196.022 100.431C196.347 100.491 196.67 100.581 196.992 100.701C197.314 100.821 197.597 100.964 197.842 101.13C198.087 101.296 198.277 101.478 198.412 101.675C198.548 101.872 198.596 102.075 198.558 102.283C198.53 102.433 198.463 102.606 198.358 102.801C198.263 102.99 198.147 103.171 198.012 103.344C197.878 103.508 197.732 103.645 197.574 103.753C197.426 103.855 197.286 103.893 197.153 103.869C197.003 103.841 196.865 103.772 196.739 103.663C196.615 103.545 196.478 103.421 196.33 103.29C196.191 103.161 196.037 103.038 195.87 102.92C195.712 102.796 195.521 102.714 195.296 102.672ZM57.5435 103.949C58.0012 104.034 58.4291 104.186 58.8272 104.407C59.2253 104.627 59.5635 104.892 59.8417 105.202C60.1199 105.512 60.3222 105.859 60.4487 106.244C60.5835 106.631 60.6116 107.036 60.5328 107.461C60.5003 107.635 60.427 107.798 60.3129 107.949C60.2087 108.093 60.0784 108.216 59.9221 108.316C59.7673 108.407 59.5956 108.475 59.407 108.517C59.2282 108.553 59.0472 108.553 58.8642 108.52C58.8475 108.516 58.8301 108.517 58.8119 108.523C58.8036 108.521 58.7911 108.519 58.7745 108.516C58.7563 108.521 58.7389 108.522 58.7222 108.519L58.5868 109.527C58.3991 110.723 58.4041 111.623 58.6017 112.228C58.8076 112.835 59.1561 113.183 59.6471 113.275C59.8218 113.307 59.9788 113.319 60.1182 113.31C60.2658 113.303 60.4017 113.29 60.526 113.27C60.66 113.243 60.7843 113.223 60.8986 113.21C61.013 113.197 61.1242 113.2 61.2324 113.22C61.4238 113.256 61.5748 113.37 61.6854 113.563C61.8042 113.757 61.8421 113.97 61.7988 114.203C61.7555 114.436 61.6208 114.652 61.3944 114.851C61.1764 115.052 60.904 115.221 60.5772 115.358C60.252 115.487 59.8955 115.576 59.5077 115.625C59.12 115.673 58.7389 115.663 58.3644 115.593C57.7153 115.473 57.1948 115.1 56.8027 114.477C56.4121 113.845 56.2094 112.989 56.1945 111.91C56.1755 111.735 56.1243 111.639 56.0411 111.624C55.9413 111.605 55.8446 111.639 55.7512 111.725C54.7343 112.612 53.7111 113.231 52.6818 113.583C51.654 113.925 50.6866 114.013 49.7796 113.844C49.3552 113.765 48.984 113.632 48.666 113.444C48.348 113.256 48.0892 113.027 47.8896 112.757C47.6999 112.481 47.5686 112.168 47.4957 111.819C47.4326 111.463 47.439 111.081 47.5147 110.673C47.6213 110.099 47.8581 109.519 48.2252 108.933C48.6005 108.349 49.0617 107.789 49.6088 107.253C50.1558 106.718 50.764 106.224 51.4334 105.771C52.1111 105.32 52.8013 104.941 53.5042 104.632C54.2154 104.325 54.9188 104.107 55.6142 103.978C56.3096 103.849 56.9527 103.839 57.5435 103.949ZM56.3298 108.191C56.5321 107.936 56.7073 107.758 56.8553 107.656C57.0048 107.546 57.1999 107.492 57.4406 107.493C57.6283 107.502 57.7307 107.461 57.7477 107.37C57.76 107.303 57.7482 107.228 57.7122 107.144C57.5943 106.898 57.4626 106.68 57.3172 106.489C57.1733 106.29 56.9558 106.164 56.6645 106.11C56.3483 106.051 55.9777 106.077 55.5526 106.187C55.1275 106.298 54.6825 106.469 54.2176 106.701C53.7626 106.927 53.3032 107.199 52.8395 107.517C52.3856 107.829 51.9711 108.161 51.5958 108.513C51.2205 108.865 50.9043 109.224 50.647 109.589C50.3898 109.955 50.2319 110.296 50.1731 110.612C50.1206 110.895 50.1546 111.129 50.275 111.315C50.4038 111.503 50.6013 111.621 50.8676 111.67C51.5499 111.797 52.3619 111.573 53.3034 110.999C54.245 110.425 55.2538 109.489 56.3298 108.191ZM67.0035 105.782C67.561 105.886 68.1213 106.067 68.6843 106.327C69.2488 106.578 69.7549 106.866 70.2026 107.19C70.6519 107.506 71.0084 107.834 71.272 108.176C71.5357 108.518 71.6428 108.822 71.5934 109.088C71.5687 109.221 71.4826 109.36 71.3352 109.505C71.1894 109.641 71.0193 109.769 70.8251 109.888C70.6324 109.998 70.4269 110.085 70.2087 110.148C70.0003 110.204 69.8212 110.218 69.6714 110.19C69.4717 110.153 69.2625 110.028 69.0438 109.815C68.8333 109.604 68.5969 109.371 68.3344 109.116C68.0818 108.854 67.7962 108.607 67.4776 108.375C67.159 108.144 66.7958 107.991 66.388 107.915C66.1218 107.866 65.8889 107.891 65.6894 107.992C65.4998 108.086 65.3834 108.249 65.3401 108.482C65.3015 108.69 65.362 108.921 65.5215 109.174C65.6826 109.42 65.9046 109.685 66.1874 109.969C66.4785 110.256 66.8089 110.563 67.1787 110.89C67.5484 111.216 67.9233 111.561 68.3035 111.925C68.692 112.29 69.0634 112.677 69.4177 113.087C69.772 113.497 70.0751 113.928 70.327 114.379C70.5872 114.832 70.7739 115.31 70.8871 115.813C71.0019 116.308 71.009 116.826 70.9086 117.367C70.8221 117.833 70.6601 118.242 70.4226 118.594C70.1851 118.945 69.8869 119.23 69.5281 119.448C69.1692 119.665 68.7637 119.809 68.3115 119.88C67.8593 119.951 67.3794 119.94 66.8718 119.845C66.231 119.726 65.6587 119.517 65.1549 119.217C64.6496 118.925 64.233 118.572 63.9053 118.158C63.5775 117.744 63.3453 117.28 63.2087 116.764C63.0804 116.249 63.0688 115.709 63.1738 115.143C63.3098 114.411 63.5376 113.902 63.8574 113.617C64.1855 113.334 64.6324 113.245 65.1983 113.35C65.5478 113.415 65.8142 113.533 65.9975 113.705C66.1808 113.876 66.2547 114.058 66.2192 114.249C66.2006 114.349 66.1647 114.45 66.1113 114.552C66.0595 114.646 66.002 114.747 65.9387 114.856C65.8854 114.958 65.8304 115.068 65.774 115.187C65.7258 115.307 65.6902 115.429 65.667 115.554C65.6268 115.771 65.6382 115.988 65.7009 116.206C65.7637 116.424 65.8644 116.624 66.003 116.805C66.1484 116.995 66.325 117.157 66.5326 117.29C66.7403 117.424 66.969 117.513 67.2186 117.56C67.8843 117.683 68.2682 117.47 68.3701 116.921C68.4505 116.489 68.3556 116.049 68.0855 115.603C67.8169 115.149 67.4587 114.69 67.0107 114.228C66.5643 113.758 66.0763 113.28 65.5467 112.795C65.0254 112.31 64.5446 111.817 64.1044 111.313C63.6642 110.809 63.316 110.297 63.0598 109.776C62.8051 109.247 62.728 108.712 62.8284 108.171C62.9118 107.722 63.0798 107.327 63.3324 106.986C63.5933 106.647 63.9108 106.375 64.2847 106.169C64.6603 105.954 65.0783 105.812 65.5388 105.743C66.0076 105.675 66.4959 105.688 67.0035 105.782ZM76.4149 107.53C76.9724 107.633 77.5327 107.815 78.0957 108.074C78.6603 108.325 79.1664 108.613 79.6141 108.937C80.0633 109.253 80.4198 109.582 80.6835 109.923C80.9472 110.265 81.0543 110.569 81.0049 110.835C80.9801 110.968 80.8941 111.107 80.7467 111.252C80.6008 111.389 80.4308 111.516 80.2365 111.635C80.0439 111.746 79.8384 111.832 79.6201 111.895C79.4118 111.951 79.2327 111.965 79.0829 111.938C78.8832 111.9 78.6739 111.776 78.4552 111.563C78.2448 111.352 78.0083 111.118 77.7458 110.863C77.4932 110.601 77.2076 110.354 76.889 110.123C76.5704 109.891 76.2072 109.738 75.7995 109.662C75.5332 109.613 75.3003 109.638 75.1009 109.739C74.9113 109.833 74.7948 109.997 74.7516 110.23C74.7129 110.438 74.7734 110.668 74.933 110.922C75.094 111.167 75.316 111.432 75.5988 111.717C75.89 112.003 76.2204 112.31 76.5901 112.637C76.9598 112.964 77.3348 113.309 77.715 113.672C78.1035 114.037 78.4749 114.424 78.8291 114.834C79.1834 115.245 79.4865 115.675 79.7384 116.127C79.9987 116.579 80.1854 117.057 80.2986 117.561C80.4133 118.055 80.4205 118.573 80.3201 119.114C80.2335 119.58 80.0715 119.989 79.834 120.341C79.5966 120.693 79.2984 120.977 78.9395 121.195C78.5806 121.412 78.1751 121.556 77.7229 121.627C77.2707 121.698 76.7908 121.687 76.2832 121.593C75.6425 121.474 75.0702 121.264 74.5664 120.964C74.061 120.672 73.6445 120.319 73.3167 119.906C72.9889 119.492 72.7567 119.027 72.6201 118.511C72.4918 117.996 72.4802 117.456 72.5853 116.89C72.7212 116.158 72.9491 115.649 73.2688 115.364C73.5969 115.081 74.0439 114.992 74.6097 115.097C74.9592 115.162 75.2256 115.28 75.4089 115.452C75.5923 115.624 75.6662 115.805 75.6306 115.997C75.6121 116.097 75.5761 116.197 75.5228 116.299C75.4709 116.393 75.4134 116.494 75.3502 116.603C75.2968 116.705 75.2419 116.815 75.1854 116.934C75.1373 117.054 75.1016 117.177 75.0785 117.302C75.0383 117.518 75.0496 117.735 75.1124 117.953C75.1752 118.172 75.2759 118.371 75.4145 118.552C75.5599 118.742 75.7364 118.904 75.9441 119.038C76.1518 119.171 76.3804 119.261 76.6301 119.307C77.2958 119.431 77.6796 119.218 77.7816 118.669C77.8619 118.236 77.767 117.796 77.4969 117.35C77.2284 116.896 76.8701 116.438 76.4221 115.976C75.9757 115.505 75.4877 115.028 74.9581 114.542C74.4368 114.058 73.9561 113.564 73.5158 113.06C73.0756 112.557 72.7274 112.045 72.4712 111.523C72.2165 110.994 72.1394 110.459 72.2398 109.918C72.3233 109.469 72.4913 109.074 72.7439 108.733C73.0048 108.394 73.3222 108.122 73.6962 107.916C74.0717 107.702 74.4897 107.56 74.9502 107.49C75.4191 107.422 75.9073 107.436 76.4149 107.53ZM84.1484 115.602C83.9414 116.718 83.9521 117.61 84.1805 118.281C84.4089 118.952 84.8476 119.348 85.4967 119.468C85.9044 119.544 86.3013 119.493 86.6873 119.315C87.0816 119.138 87.4437 118.857 87.7737 118.471C88.1036 118.084 88.3901 117.608 88.6329 117.042C88.8856 116.469 89.0768 115.833 89.2066 115.134C89.2854 114.71 89.3367 114.34 89.3606 114.026C89.386 113.704 89.4003 113.418 89.4035 113.169C89.4166 112.913 89.4242 112.687 89.4265 112.489C89.4287 112.292 89.4461 112.105 89.4785 111.931C89.5279 111.664 89.6758 111.494 89.9221 111.419C90.17 111.336 90.5394 111.34 91.0303 111.431C91.6544 111.547 92.1108 111.778 92.3995 112.124C92.6964 112.472 92.7947 112.917 92.6943 113.457C92.4208 114.93 92.0296 116.226 91.5205 117.346C91.0197 118.466 90.4224 119.388 89.7286 120.112C89.0446 120.828 88.2789 121.336 87.4315 121.635C86.584 121.934 85.686 121.995 84.7374 121.819C84.0633 121.694 83.4655 121.437 82.9439 121.047C82.429 120.668 82.0099 120.19 81.6865 119.613C81.373 119.03 81.1639 118.371 81.0591 117.637C80.9559 116.895 80.9815 116.108 81.136 115.276C81.1947 114.959 81.2656 114.624 81.3487 114.269C81.4317 113.914 81.5278 113.536 81.6367 113.135C81.7473 112.725 81.8723 112.283 82.0118 111.81C82.1597 111.338 82.3194 110.825 82.4911 110.272C82.5608 110.035 82.7087 109.865 82.9347 109.76C83.1705 109.649 83.4465 109.623 83.7627 109.682C84.0457 109.734 84.3066 109.813 84.5454 109.917C84.7842 110.022 84.9817 110.14 85.1379 110.273C85.3025 110.406 85.4223 110.549 85.4974 110.701C85.5809 110.854 85.6087 111.006 85.5809 111.155C85.5531 111.305 85.4758 111.536 85.349 111.848C85.232 112.154 85.0975 112.508 84.9453 112.91C84.8031 113.305 84.6538 113.738 84.4977 114.208C84.3513 114.672 84.2349 115.136 84.1484 115.602ZM93.7258 122.507C93.873 121.389 93.9666 120.352 94.0065 119.395C94.0562 118.432 94.0753 117.587 94.0636 116.862C94.0602 116.138 94.0446 115.55 94.0167 115.097C93.9972 114.646 93.9975 114.366 94.0176 114.258C94.0469 114.1 94.1338 113.957 94.2781 113.829C94.4307 113.702 94.6086 113.602 94.8118 113.528C95.0165 113.445 95.229 113.39 95.4494 113.362C95.6781 113.336 95.8798 113.339 96.0546 113.371C96.196 113.397 96.3121 113.445 96.4027 113.513C96.5016 113.583 96.561 113.68 96.581 113.805C96.5963 113.954 96.606 114.11 96.6099 114.275C96.6237 114.432 96.6313 114.623 96.6328 114.847C96.6255 115.164 96.6635 115.331 96.7467 115.346C96.8383 115.363 96.9678 115.245 97.1353 114.992C97.3727 114.64 97.6104 114.357 97.8481 114.143C98.0858 113.929 98.326 113.771 98.5686 113.67C98.8211 113.562 99.0693 113.5 99.3131 113.485C99.5652 113.472 99.8203 113.489 100.078 113.537C100.86 113.682 101.465 114.113 101.891 114.829C102.326 115.547 102.59 116.517 102.681 117.739C102.698 117.88 102.719 117.974 102.745 118.022C102.772 118.061 102.806 118.085 102.848 118.093C102.889 118.101 102.934 118.092 102.982 118.066C103.04 118.034 103.1 117.963 103.163 117.854C103.463 117.351 103.781 116.936 104.117 116.611C104.455 116.278 104.786 116.021 105.112 115.84C105.449 115.653 105.776 115.533 106.096 115.481C106.416 115.428 106.713 115.427 106.987 115.478C107.495 115.573 107.918 115.845 108.256 116.295C108.604 116.738 108.865 117.376 109.037 118.209C109.219 119.035 109.318 120.06 109.331 121.285C109.355 122.503 109.296 123.934 109.154 125.578C109.071 126.027 108.875 126.314 108.568 126.437C108.26 126.569 107.868 126.591 107.394 126.503C107.086 126.446 106.857 126.335 106.707 126.169C106.557 126.004 106.49 125.81 106.505 125.589C106.611 124.413 106.681 123.363 106.715 122.439C106.759 121.509 106.763 120.722 106.727 120.078C106.693 119.427 106.615 118.921 106.492 118.563C106.378 118.206 106.212 118.007 105.996 117.967C105.888 117.947 105.736 118.001 105.54 118.128C105.353 118.257 105.128 118.516 104.866 118.906C104.606 119.289 104.308 119.827 103.972 120.522C103.638 121.209 103.274 122.102 102.881 123.199C102.772 123.506 102.574 123.719 102.285 123.838C102.004 123.958 101.681 123.984 101.315 123.916C100.89 123.837 100.607 123.715 100.466 123.551C100.332 123.389 100.287 123.148 100.329 122.829C100.397 122.273 100.44 121.717 100.458 121.161C100.485 120.598 100.485 120.06 100.46 119.548C100.436 119.027 100.392 118.545 100.328 118.103C100.265 117.652 100.184 117.258 100.083 116.921C99.9833 116.575 99.8666 116.3 99.7326 116.094C99.5986 115.888 99.4526 115.771 99.2945 115.742C99.0864 115.703 98.8555 115.811 98.6018 116.065C98.3563 116.321 98.1051 116.7 97.8481 117.203C97.5994 117.708 97.3598 118.326 97.1292 119.058C96.8987 119.79 96.6976 120.618 96.5261 121.542C96.4968 121.7 96.4716 121.859 96.4506 122.018C96.4311 122.17 96.4059 122.329 96.375 122.495C96.3286 122.745 96.2492 122.941 96.1366 123.083C96.0324 123.228 95.8969 123.332 95.7301 123.395C95.5716 123.461 95.3936 123.492 95.196 123.49C94.9985 123.488 94.7873 123.466 94.5627 123.424C94.3546 123.385 94.1913 123.338 94.0727 123.281C93.9525 123.233 93.8645 123.174 93.8087 123.103C93.753 123.033 93.7219 122.945 93.7155 122.841C93.7075 122.744 93.7109 122.633 93.7258 122.507ZM111.27 116.196C111.33 115.871 111.522 115.653 111.844 115.541C112.167 115.42 112.6 115.41 113.141 115.51C113.265 115.533 113.375 115.571 113.468 115.623C113.562 115.675 113.637 115.757 113.693 115.871C113.76 115.978 113.811 116.121 113.846 116.3C113.882 116.479 113.909 116.703 113.928 116.973C113.94 117.277 113.98 117.435 114.046 117.447C114.105 117.458 114.198 117.351 114.326 117.125C114.564 116.678 114.836 116.303 115.142 115.998C115.458 115.687 115.792 115.443 116.143 115.267C116.495 115.083 116.861 114.966 117.241 114.916C117.629 114.867 118.022 114.88 118.422 114.954C119.229 115.104 119.953 115.398 120.595 115.835C121.239 116.265 121.764 116.797 122.171 117.432C122.58 118.059 122.862 118.766 123.017 119.552C123.174 120.33 123.174 121.143 123.016 121.992C122.849 122.891 122.537 123.694 122.078 124.4C121.628 125.109 121.073 125.69 120.412 126.144C119.752 126.59 119.007 126.895 118.176 127.059C117.351 127.233 116.482 127.235 115.566 127.065L114.934 126.922C114.56 126.852 114.333 127.03 114.255 127.454L113.827 133.302C113.793 133.442 113.719 133.561 113.606 133.661C113.499 133.77 113.363 133.857 113.196 133.92C113.038 133.986 112.854 134.025 112.645 134.038C112.444 134.052 112.24 134.04 112.032 134.001C111.433 133.89 111.144 133.634 111.167 133.234C111.274 131.687 111.345 130.211 111.382 128.806C111.428 127.403 111.447 126.094 111.44 124.879C111.443 123.657 111.43 122.544 111.401 121.54C111.373 120.536 111.341 119.661 111.308 118.915C111.283 118.17 111.266 117.564 111.258 117.098C111.241 116.63 111.245 116.329 111.27 116.196ZM114.715 120.244C114.615 120.785 114.536 121.326 114.479 121.866C114.423 122.398 114.384 122.98 114.361 123.613C114.341 123.997 114.506 124.247 114.854 124.363C115.061 124.453 115.293 124.548 115.55 124.648C115.817 124.74 116.042 124.803 116.225 124.837C116.758 124.936 117.255 124.947 117.717 124.869C118.179 124.791 118.591 124.635 118.953 124.401C119.317 124.159 119.62 123.849 119.862 123.472C120.104 123.096 120.271 122.658 120.364 122.158C120.477 121.551 120.499 120.969 120.429 120.414C120.362 119.851 120.219 119.347 120 118.901C119.79 118.458 119.51 118.087 119.161 117.79C118.82 117.494 118.424 117.305 117.975 117.221C117.584 117.149 117.21 117.17 116.853 117.284C116.506 117.392 116.187 117.578 115.897 117.843C115.617 118.1 115.374 118.434 115.169 118.844C114.964 119.253 114.812 119.72 114.715 120.244ZM127.283 113.268C127.365 112.827 127.547 112.542 127.829 112.414C128.112 112.277 128.541 112.262 129.115 112.369C129.323 112.407 129.494 112.46 129.628 112.528C129.772 112.589 129.884 112.679 129.965 112.798C130.055 112.917 130.113 113.066 130.141 113.243C130.178 113.414 130.194 113.628 130.19 113.885C130.146 114.677 130.106 115.496 130.069 116.342C130.041 117.189 130.016 118.041 129.995 118.898C129.975 119.281 130.136 119.505 130.477 119.568C130.569 119.585 130.72 119.605 130.931 119.627C131.152 119.642 131.411 119.664 131.707 119.693C132.004 119.714 132.322 119.739 132.661 119.767C133.009 119.797 133.351 119.831 133.689 119.867C134.036 119.897 134.361 119.932 134.664 119.971C134.976 120.003 135.249 120.041 135.482 120.084C135.665 120.118 135.804 120.183 135.898 120.278C135.994 120.364 136.06 120.471 136.097 120.599C136.143 120.719 136.161 120.852 136.152 120.996C136.152 121.134 136.139 121.274 136.113 121.415C136.09 121.54 136.041 121.664 135.966 121.788C135.9 121.913 135.815 122.023 135.712 122.115C135.618 122.201 135.507 122.267 135.378 122.312C135.249 122.357 135.11 122.365 134.96 122.337C134.236 122.203 133.499 122.092 132.75 122.004C132.01 121.91 131.266 121.832 130.52 121.771C130.136 121.752 129.915 121.904 129.854 122.229C129.85 122.254 129.848 122.288 129.848 122.331C129.85 122.366 129.849 122.396 129.844 122.421C129.81 123.163 129.776 123.858 129.741 124.506C129.715 125.155 129.685 125.735 129.651 126.245C129.626 126.749 129.6 127.17 129.571 127.509C129.553 127.841 129.533 128.061 129.513 128.17C129.458 128.469 129.382 128.713 129.287 128.902C129.19 129.099 129.063 129.248 128.907 129.348C128.749 129.457 128.553 129.515 128.319 129.523C128.092 129.541 127.812 129.519 127.479 129.458C127.163 129.399 126.944 129.281 126.822 129.103C126.7 128.926 126.659 128.681 126.7 128.37C126.832 127.379 126.936 126.378 127.012 125.368C127.089 124.349 127.149 123.332 127.191 122.315C127.183 121.944 127.029 121.73 126.729 121.674C126.704 121.67 126.674 121.668 126.639 121.671C126.605 121.673 126.575 121.671 126.55 121.667C126.012 121.688 125.504 121.714 125.024 121.745C124.545 121.777 124.093 121.822 123.669 121.881C123.431 121.914 123.221 121.931 123.04 121.932C122.861 121.924 122.7 121.908 122.559 121.881C122.367 121.846 122.241 121.736 122.181 121.553C122.122 121.361 122.116 121.136 122.164 120.878C122.181 120.787 122.209 120.684 122.247 120.571C122.287 120.449 122.342 120.335 122.414 120.228C122.479 120.11 122.566 120.01 122.676 119.928C122.779 119.835 122.912 119.769 123.074 119.73C123.45 119.654 123.943 119.595 124.553 119.553C125.165 119.503 125.85 119.479 126.607 119.482C126.781 119.472 126.922 119.429 127.031 119.354C127.149 119.273 127.226 119.137 127.262 118.945C127.269 118.904 127.277 118.862 127.285 118.821C127.294 118.771 127.295 118.719 127.288 118.666C127.297 117.876 127.297 117.157 127.288 116.51C127.289 115.856 127.285 115.296 127.277 114.829C127.277 114.364 127.276 113.998 127.274 113.731C127.272 113.464 127.275 113.309 127.283 113.268ZM138.116 117.022C137.875 116.978 137.652 116.902 137.448 116.795C137.254 116.682 137.09 116.548 136.955 116.394C136.83 116.233 136.738 116.056 136.678 115.864C136.619 115.673 136.609 115.473 136.648 115.265C136.713 114.915 136.902 114.658 137.217 114.493C137.54 114.329 137.935 114.29 138.401 114.377C138.617 114.417 138.818 114.497 139.002 114.617C139.188 114.729 139.343 114.866 139.468 115.027C139.602 115.189 139.697 115.37 139.755 115.57C139.814 115.762 139.825 115.954 139.79 116.145C139.723 116.503 139.538 116.761 139.233 116.92C138.938 117.072 138.566 117.106 138.116 117.022ZM135.699 120.512C135.753 120.221 135.922 120.007 136.206 119.87C136.499 119.726 136.854 119.693 137.27 119.771C138.019 119.91 138.371 120.242 138.325 120.767C138.292 121.131 138.25 121.541 138.2 121.996C138.158 122.453 138.107 122.939 138.046 123.452C137.995 123.96 137.931 124.486 137.856 125.031C137.79 125.57 137.721 126.104 137.649 126.633C137.578 127.153 137.506 127.656 137.433 128.142C137.36 128.628 137.287 129.07 137.213 129.47C137.135 129.886 136.928 130.17 136.59 130.323C136.26 130.477 135.812 130.501 135.246 130.396C134.988 130.348 134.796 130.248 134.669 130.095C134.549 129.952 134.511 129.765 134.554 129.532C134.767 128.383 134.938 127.304 135.065 126.295C135.202 125.279 135.31 124.373 135.388 123.579C135.475 122.786 135.537 122.126 135.575 121.599C135.622 121.066 135.664 120.703 135.699 120.512ZM140.354 126.321C140.38 126.18 140.426 126.025 140.492 125.856C140.558 125.688 140.61 125.5 140.648 125.291C140.675 125.15 140.632 125.03 140.521 124.932C140.419 124.836 140.301 124.728 140.168 124.608C140.036 124.489 139.92 124.347 139.821 124.182C139.731 124.019 139.711 123.805 139.76 123.538C139.796 123.347 139.881 123.165 140.017 122.992C140.16 122.821 140.347 122.675 140.576 122.553C141.135 122.278 141.703 122.044 142.282 121.85C142.868 121.658 143.442 121.51 144.003 121.408C144.573 121.307 145.126 121.251 145.662 121.238C146.198 121.226 146.703 121.264 147.177 121.352C147.976 121.5 148.697 121.789 149.341 122.218C149.994 122.641 150.531 123.158 150.951 123.77C151.381 124.374 151.682 125.05 151.853 125.796C152.034 126.536 152.052 127.297 151.907 128.079C151.765 128.844 151.467 129.542 151.015 130.173C150.572 130.797 150.032 131.316 149.395 131.732C148.759 132.147 148.046 132.437 147.258 132.6C146.477 132.774 145.683 132.786 144.876 132.636C144.085 132.489 143.378 132.22 142.753 131.828C142.129 131.437 141.614 130.963 141.21 130.406C140.807 129.84 140.527 129.212 140.372 128.52C140.218 127.82 140.212 127.087 140.354 126.321ZM145.568 130.44C145.917 130.505 146.292 130.501 146.693 130.429C147.094 130.357 147.473 130.217 147.83 130.008C148.197 129.792 148.517 129.507 148.789 129.153C149.07 128.8 149.256 128.379 149.347 127.888C149.44 127.388 149.435 126.905 149.332 126.439C149.229 125.972 149.045 125.551 148.779 125.174C148.523 124.791 148.192 124.467 147.785 124.202C147.386 123.938 146.933 123.76 146.425 123.665C145.501 123.494 144.749 123.604 144.169 123.995C143.59 124.378 143.208 125.065 143.024 126.055C142.924 126.596 142.91 127.114 142.981 127.61C143.063 128.098 143.217 128.54 143.445 128.935C143.675 129.322 143.967 129.648 144.323 129.912C144.687 130.177 145.102 130.353 145.568 130.44ZM154.785 122.867C154.809 122.743 154.885 122.632 155.015 122.536C155.146 122.431 155.308 122.349 155.5 122.29C155.693 122.222 155.903 122.18 156.13 122.162C156.367 122.137 156.598 122.145 156.823 122.187C156.948 122.21 157.045 122.263 157.116 122.345C157.195 122.428 157.251 122.572 157.282 122.776C157.314 122.971 157.324 123.244 157.31 123.594C157.307 123.938 157.28 124.385 157.229 124.935C157.232 125.108 157.237 125.242 157.245 125.338C157.263 125.428 157.297 125.477 157.347 125.486C157.421 125.5 157.52 125.385 157.643 125.141C158.576 123.498 159.617 122.783 160.766 122.996C161.298 123.095 161.75 123.351 162.121 123.764C162.5 124.179 162.807 124.8 163.041 125.627C163.284 126.447 163.462 127.504 163.575 128.799C163.689 130.086 163.75 131.659 163.757 133.52C163.757 133.615 163.754 133.7 163.748 133.777C163.743 133.853 163.734 133.925 163.721 133.991C163.686 134.183 163.609 134.34 163.491 134.465C163.384 134.583 163.25 134.674 163.092 134.739C162.935 134.796 162.765 134.829 162.583 134.839C162.399 134.856 162.219 134.849 162.045 134.816C161.695 134.751 161.448 134.667 161.304 134.562C161.168 134.46 161.099 134.3 161.096 134.085C161.089 132.775 161.061 131.608 161.01 130.582C160.968 129.559 160.896 128.693 160.795 127.986C160.704 127.272 160.582 126.72 160.431 126.33C160.279 125.94 160.095 125.726 159.879 125.685C159.663 125.645 159.433 125.745 159.191 125.984C158.958 126.216 158.702 126.603 158.42 127.145C158.139 127.686 157.833 128.383 157.503 129.234C157.181 130.087 156.832 131.111 156.455 132.306C156.351 132.631 156.136 132.867 155.807 133.012C155.479 133.158 155.09 133.189 154.641 133.106C154.341 133.05 154.124 132.945 153.989 132.791C153.854 132.637 153.798 132.45 153.822 132.231C154.068 130.486 154.249 129.048 154.365 127.915C154.49 126.777 154.578 125.863 154.628 125.175C154.68 124.479 154.712 123.96 154.724 123.618C154.735 123.276 154.756 123.026 154.785 122.867ZM169.98 124.901C170.538 125.004 171.098 125.186 171.661 125.445C172.225 125.696 172.732 125.984 173.179 126.308C173.629 126.624 173.985 126.953 174.249 127.294C174.512 127.636 174.62 127.94 174.57 128.206C174.545 128.339 174.459 128.478 174.312 128.623C174.166 128.76 173.996 128.887 173.802 129.006C173.609 129.117 173.404 129.203 173.185 129.266C172.977 129.322 172.798 129.336 172.648 129.308C172.448 129.271 172.239 129.146 172.02 128.934C171.81 128.722 171.574 128.489 171.311 128.234C171.058 127.972 170.773 127.725 170.454 127.494C170.136 127.262 169.772 127.109 169.365 127.033C169.098 126.984 168.866 127.009 168.666 127.11C168.476 127.204 168.36 127.367 168.317 127.6C168.278 127.809 168.339 128.039 168.498 128.293C168.659 128.538 168.881 128.803 169.164 129.088C169.455 129.374 169.786 129.681 170.155 130.008C170.525 130.335 170.9 130.68 171.28 131.043C171.669 131.408 172.04 131.795 172.394 132.205C172.749 132.615 173.052 133.046 173.304 133.498C173.564 133.95 173.751 134.428 173.864 134.932C173.979 135.426 173.986 135.944 173.885 136.485C173.799 136.951 173.637 137.36 173.399 137.712C173.162 138.064 172.864 138.348 172.505 138.566C172.146 138.783 171.74 138.927 171.288 138.998C170.836 139.069 170.356 139.058 169.848 138.964C169.208 138.845 168.635 138.635 168.132 138.335C167.626 138.043 167.21 137.69 166.882 137.277C166.554 136.863 166.322 136.398 166.185 135.882C166.057 135.367 166.045 134.827 166.15 134.261C166.286 133.529 166.514 133.02 166.834 132.735C167.162 132.452 167.609 132.363 168.175 132.468C168.524 132.533 168.791 132.651 168.974 132.823C169.157 132.995 169.231 133.176 169.196 133.368C169.177 133.467 169.141 133.568 169.088 133.67C169.036 133.764 168.979 133.865 168.915 133.974C168.862 134.076 168.807 134.186 168.751 134.305C168.702 134.425 168.667 134.548 168.644 134.673C168.604 134.889 168.615 135.106 168.678 135.324C168.74 135.543 168.841 135.742 168.98 135.923C169.125 136.113 169.302 136.275 169.509 136.409C169.717 136.542 169.946 136.632 170.195 136.678C170.861 136.802 171.245 136.589 171.347 136.04C171.427 135.607 171.332 135.167 171.062 134.721C170.794 134.267 170.435 133.809 169.987 133.347C169.541 132.876 169.053 132.398 168.523 131.913C168.002 131.429 167.521 130.935 167.081 130.431C166.641 129.928 166.293 129.415 166.036 128.894C165.782 128.365 165.705 127.83 165.805 127.289C165.888 126.84 166.056 126.445 166.309 126.104C166.57 125.765 166.887 125.493 167.261 125.287C167.637 125.073 168.055 124.931 168.515 124.861C168.984 124.793 169.473 124.807 169.98 124.901ZM179.718 137.684C179.477 137.639 179.255 137.559 179.053 137.444C178.859 137.331 178.694 137.197 178.559 137.043C178.426 136.88 178.33 136.703 178.271 136.511C178.22 136.321 178.213 136.126 178.25 135.927C178.315 135.577 178.505 135.32 178.819 135.154C179.143 134.99 179.537 134.952 180.003 135.038C180.219 135.078 180.42 135.159 180.604 135.279C180.79 135.391 180.945 135.527 181.07 135.688C181.204 135.851 181.3 136.028 181.359 136.22C181.418 136.411 181.43 136.603 181.394 136.794C181.326 137.161 181.14 137.423 180.835 137.582C180.54 137.733 180.168 137.768 179.718 137.684ZM177.075 127.858C176.821 128.301 176.494 128.486 176.094 128.412C175.936 128.382 175.78 128.319 175.626 128.222L175.038 127.841C174.634 127.56 174.465 127.24 174.532 126.882C174.56 126.732 174.633 126.569 174.752 126.393C177.1 123.111 179.984 121.787 183.404 122.422C184.145 122.559 184.801 122.802 185.374 123.149C185.956 123.49 186.434 123.905 186.808 124.397C187.182 124.888 187.441 125.439 187.585 126.052C187.738 126.665 187.752 127.309 187.627 127.983C187.514 128.591 187.294 129.152 186.966 129.668C186.639 130.176 186.219 130.627 185.707 131.023C185.203 131.42 184.607 131.753 183.92 132.021C183.242 132.291 182.492 132.483 181.67 132.597C181.511 132.62 181.352 132.616 181.194 132.587C180.853 132.523 180.571 132.329 180.347 132.003L180.225 131.826C180.039 131.576 179.966 131.343 180.006 131.127C180.036 130.968 180.121 130.834 180.262 130.722C180.403 130.611 180.599 130.531 180.849 130.482C181.571 130.35 182.181 130.192 182.68 130.009C183.187 129.828 183.603 129.625 183.929 129.401C184.263 129.179 184.516 128.929 184.688 128.651C184.869 128.375 184.99 128.066 185.054 127.725C185.12 127.367 185.103 127.02 185.002 126.682C184.909 126.347 184.751 126.042 184.526 125.768C184.311 125.487 184.037 125.251 183.702 125.06C183.377 124.862 183.015 124.725 182.616 124.651C181.551 124.454 180.565 124.615 179.659 125.135C178.754 125.656 177.892 126.563 177.075 127.858Z" fill="white"/>
<path d="M28.1042 90.7322C35.1222 74.5368 49.3525 64.1404 63.5341 54.5642C88.6249 37.6214 119.199 23.1109 150.337 29.5664C173.452 34.3584 196.974 45.4899 212.93 63.3232C225.808 77.7162 224.731 97.5133 219.524 114.598C212.599 137.321 197.44 153.311 176.516 164.102C147.476 179.078 111.712 187.468 79.2807 180.439C59.7495 176.205 35.8932 167.449 27.3169 147.568C24.8482 141.845 22.9273 136.411 21.7564 130.296C21.0447 126.579 18.6562 122.895 18.6562 119.125" stroke="white" stroke-width="2" stroke-linecap="round" stroke-linejoin="round"/>
<path d="M36.8365 63.5029C48.4004 50.1681 65.0986 44.5328 81.5037 39.6651C110.528 31.053 144.051 26.4095 171.806 41.9312C192.409 53.453 211.495 71.1435 221.349 92.9501C229.302 110.55 222.32 129.106 212.216 143.834C198.778 163.422 179.511 174.113 156.311 178.111C124.112 183.66 87.4796 180.905 58.6641 164.448C41.3103 154.536 21.192 139.011 18.9922 117.47C18.359 111.27 18.1614 105.51 18.8837 99.3254C20.382 86.5 26.8661 78.0953 27.9999 74.5001" stroke="white" stroke-width="2" stroke-linecap="round" stroke-linejoin="round"/>
</svg>
