<svg width="231" height="173" viewBox="0 0 231 173" fill="none" xmlns="http://www.w3.org/2000/svg">
<path d="M48.6675 56.3097C48.6162 55.7286 48.8982 55.3469 49.5135 55.1645L50.0895 55.0039C50.1515 54.9802 50.2051 54.9663 50.2505 54.9623C50.305 54.9575 50.3549 54.9531 50.4003 54.9491C50.9542 54.9002 51.3091 55.1892 51.465 55.816C51.5285 56.1214 51.6083 56.5079 51.7044 56.9752C51.8006 57.4425 51.9143 57.954 52.0456 58.5097C52.1861 59.0646 52.338 59.646 52.5014 60.2538C52.6738 60.8608 52.8591 61.4575 53.0572 62.0439C53.2546 62.6213 53.4676 63.1698 53.6964 63.6894C53.9253 64.2091 54.1712 64.6632 54.4342 65.0518C54.6972 65.4403 54.9712 65.7456 55.2561 65.9675C55.5493 66.1795 55.8548 66.2716 56.1725 66.2435C56.3995 66.2235 56.6205 66.1354 56.8355 65.9792C57.0595 65.8222 57.2754 65.6247 57.4832 65.3868C57.6902 65.1398 57.8857 64.8664 58.0697 64.5665C58.2537 64.2666 58.4191 63.9638 58.566 63.6581C58.7129 63.3523 58.8428 63.0618 58.9558 62.7865C59.0771 62.5013 59.1697 62.2552 59.2338 62.0483C59.2731 61.871 59.2863 61.7097 59.2735 61.5644C59.2671 61.4918 59.2562 61.4195 59.2407 61.3477C59.2252 61.2759 59.2048 61.1999 59.1794 61.1198C58.9573 60.5721 58.776 60.0208 58.6356 59.4658C58.4951 58.9109 58.3961 58.3066 58.3384 57.6529C58.3048 57.2716 58.3034 56.892 58.3341 56.5141C58.3648 56.1363 58.4438 55.7862 58.5709 55.4639C58.6382 55.2932 58.7484 55.1417 58.9014 55.0092C59.0544 54.8768 59.223 54.7659 59.4073 54.6764C59.6006 54.5862 59.8005 54.5182 60.0069 54.4726C60.2217 54.417 60.4198 54.3813 60.6014 54.3652C60.8011 54.3476 60.9863 54.3725 61.157 54.4398C61.3268 54.498 61.4833 54.6123 61.6264 54.7827C61.911 55.1053 62.1229 55.4846 62.262 55.9207C62.4102 56.356 62.5043 56.8006 62.5443 57.2546C62.5876 57.7449 62.5866 58.2528 62.5414 58.7783C62.4955 59.2947 62.4314 59.8128 62.3491 60.3325C62.2967 60.4652 62.2774 60.6087 62.291 60.763C62.2974 60.8357 62.3133 60.9121 62.3386 60.9922C62.3731 61.0715 62.4129 61.1595 62.458 61.2561C62.659 61.6685 62.8881 62.0875 63.1453 62.5131C63.4107 62.9289 63.7043 63.3011 64.026 63.6295C64.3478 63.958 64.7003 64.2197 65.0835 64.4147C65.4666 64.6097 65.8898 64.6867 66.3528 64.6459C66.7614 64.6099 67.1139 64.4049 67.4103 64.0311C67.7068 63.6573 67.9407 63.1974 68.1122 62.6516C68.2927 62.105 68.4148 61.5178 68.4784 60.89C68.5412 60.2531 68.5477 59.6532 68.4981 59.0903C68.4453 58.491 68.3705 57.9029 68.2739 57.3258C68.1773 56.7487 68.071 56.2182 67.9551 55.7344C67.933 55.6906 67.9199 55.646 67.9159 55.6006C67.9119 55.5552 67.9079 55.5098 67.9039 55.4644C67.8583 54.9469 68.104 54.5684 68.641 54.3288L69.2358 54.0705C69.4035 54.0008 69.56 53.9596 69.7053 53.9468C70.1865 53.9043 70.5034 54.1783 70.6562 54.7688C70.8057 55.3229 70.9325 55.879 71.0366 56.4371C71.1498 56.9944 71.2312 57.5546 71.2808 58.1175C71.3865 59.3159 71.3451 60.4542 71.1565 61.5322C70.9679 62.6102 70.6542 63.5666 70.2154 64.4014C69.7849 65.2262 69.2446 65.8961 68.5946 66.4109C67.9446 66.9257 67.2065 67.2195 66.3803 67.2924C65.5722 67.3636 64.7384 67.1947 63.8788 66.7855C63.0185 66.3673 62.2101 65.6563 61.4536 64.6524C61.3057 64.4276 61.15 64.3223 60.9866 64.3368C60.8322 64.3504 60.7019 64.4808 60.5956 64.7281C60.3274 65.319 60.0239 65.8719 59.685 66.3867C59.3453 66.8925 58.9773 67.3367 58.581 67.7193C58.1847 68.102 57.7634 68.409 57.3172 68.6405C56.871 68.872 56.4118 69.0086 55.9397 69.0502C55.177 69.1175 54.4867 68.9679 53.8688 68.6015C53.2608 68.2434 52.713 67.7381 52.2254 67.0857C51.7469 66.4325 51.3232 65.6738 50.9542 64.8096C50.5844 63.9364 50.2572 63.0274 49.9725 62.0826C49.6962 61.1279 49.4517 60.1704 49.2389 59.2102C49.0352 58.2491 48.8507 57.3503 48.6855 56.514L48.6675 56.3097ZM72.6002 53.1562C72.5137 52.1757 73.106 51.6293 74.3771 51.5173C74.595 51.498 74.7909 51.5402 74.9647 51.6439C75.1386 51.7475 75.2483 51.9025 75.294 52.1089C75.4245 52.6556 75.5456 53.1985 75.6572 53.7376C75.7688 54.2768 75.8818 54.8844 75.9964 55.5606C76.1192 56.2268 76.247 57.0025 76.38 57.8874C76.5212 58.7625 76.6821 59.8097 76.8628 61.029C76.8741 61.1562 76.9002 61.2453 76.9413 61.2966C76.9915 61.3471 77.0439 61.3699 77.0984 61.3651C77.1801 61.3579 77.2546 61.269 77.3219 61.0984C77.5705 60.3902 77.8619 59.7515 78.196 59.1821C78.5293 58.6038 78.8974 58.1092 79.3004 57.6985C79.7026 57.2788 80.1359 56.9523 80.6003 56.7193C81.073 56.4763 81.5635 56.3324 82.072 56.2875C82.7438 56.2283 83.369 56.3653 83.9474 56.6986C84.5257 57.0319 85.0364 57.5313 85.4794 58.1968C85.9224 58.8623 86.2923 59.6852 86.5892 60.6655C86.8853 61.6367 87.0874 62.7352 87.1955 63.9609C87.2251 64.2968 87.2223 64.5762 87.187 64.7989C87.16 65.0117 87.0931 65.1869 86.9863 65.3244C86.8795 65.4619 86.7237 65.5626 86.5188 65.6264C86.3148 65.6993 86.0585 65.7493 85.7498 65.7766C85.323 65.8142 85.0071 65.7597 84.802 65.6131C84.606 65.4657 84.4928 65.2194 84.4624 64.8744C84.3872 64.021 84.2573 63.2226 84.0728 62.4795C83.8966 61.7264 83.6834 61.0727 83.4332 60.5183C83.183 59.9639 82.9069 59.5308 82.6049 59.2188C82.312 58.9061 82.0112 58.7634 81.7025 58.7906C81.0034 58.8522 80.3543 59.4813 79.7553 60.6779C79.1653 61.8737 78.5944 63.6488 78.0426 66.0032C77.9884 66.2185 77.9219 66.3982 77.8431 66.5424C77.7643 66.6866 77.665 66.8051 77.5451 66.8981C77.4342 66.9902 77.2938 67.0575 77.1237 67.0999C76.9544 67.1514 76.7517 67.1876 76.5156 67.2084C76.0344 67.2509 75.6814 67.1905 75.4566 67.0273C75.2408 66.8633 75.1054 66.5733 75.0504 66.1573C74.8567 64.5823 74.6239 63.0839 74.3521 61.6622C74.0886 60.2306 73.8285 58.9405 73.5716 57.7919C73.3231 56.6335 73.1042 55.6555 72.9149 54.8578C72.7339 54.0503 72.629 53.4831 72.6002 53.1562ZM96.6221 52.2595C97.1214 52.2155 97.6094 52.2503 98.0861 52.3638C98.5627 52.4773 98.9901 52.6546 99.3682 52.8958C99.7464 53.1369 100.057 53.439 100.299 53.8019C100.551 54.164 100.697 54.5766 100.738 55.0396C100.754 55.2303 100.725 55.4204 100.651 55.61C100.584 55.7897 100.484 55.9541 100.351 56.1031C100.217 56.243 100.058 56.3623 99.8747 56.4608C99.6996 56.5494 99.5121 56.6026 99.3124 56.6202C99.2942 56.6218 99.2764 56.6279 99.2591 56.6386C99.25 56.6394 99.2364 56.6406 99.2182 56.6422C99.2009 56.6529 99.1831 56.659 99.1649 56.6606L99.3155 57.7453C99.4663 59.0405 99.7316 59.9733 100.111 60.5437C100.5 61.1133 100.962 61.3745 101.498 61.3272C101.689 61.3104 101.855 61.2775 101.997 61.2283C102.148 61.1784 102.285 61.1251 102.408 61.0685C102.54 61.0021 102.663 60.9454 102.778 60.8987C102.893 60.852 103.009 60.8234 103.127 60.813C103.336 60.7946 103.525 60.8694 103.696 61.0374C103.875 61.2045 103.976 61.4152 103.999 61.6695C104.021 61.9237 103.944 62.1867 103.766 62.4585C103.598 62.7296 103.364 62.9835 103.065 63.2204C102.765 63.4481 102.42 63.6432 102.032 63.8055C101.644 63.9679 101.245 64.067 100.837 64.1031C100.129 64.1655 99.4811 63.9298 98.8942 63.396C98.3065 62.8531 97.8491 62.0241 97.522 60.9092C97.4515 60.7325 97.3709 60.6481 97.2801 60.6561C97.1711 60.6657 97.0806 60.7286 97.0085 60.8447C96.2097 62.0589 95.3271 62.9968 94.3607 63.6585C93.3934 64.3111 92.415 64.681 91.4253 64.7683C90.9623 64.8091 90.5386 64.7778 90.1544 64.6745C89.7701 64.5711 89.4355 64.4085 89.1506 64.1865C88.8739 63.9547 88.6474 63.6682 88.4709 63.3269C88.3027 62.9757 88.1989 62.5777 88.1597 62.1328C88.1045 61.5063 88.1826 60.8361 88.3942 60.122C88.6148 59.4072 88.9315 58.693 89.3444 57.9795C89.7573 57.266 90.2456 56.5779 90.8094 55.9151C91.3822 55.2515 91.9887 54.6582 92.6288 54.1351C93.278 53.6112 93.9447 53.1819 94.6288 52.847C95.313 52.5122 95.9774 52.3164 96.6221 52.2595ZM96.5881 57.0114C96.7243 56.6882 96.8545 56.4526 96.9787 56.3044C97.1021 56.1471 97.2889 56.0346 97.5391 55.9668C97.7365 55.9219 97.8307 55.8495 97.8219 55.7497C97.8155 55.677 97.7815 55.6023 97.7198 55.5254C97.5265 55.3045 97.3269 55.1162 97.121 54.9605C96.9143 54.7958 96.6521 54.7274 96.3343 54.7554C95.9893 54.7858 95.6122 54.9197 95.2031 55.1571C94.794 55.3945 94.3818 55.7007 93.9665 56.0759C93.5596 56.4412 93.1615 56.856 92.7724 57.3204C92.3916 57.7749 92.0574 58.2389 91.7697 58.7127C91.4821 59.1864 91.2576 59.6499 91.0963 60.1034C90.935 60.5568 90.8696 60.956 90.9 61.301C90.9272 61.6097 91.0301 61.8431 91.2088 62.0012C91.3965 62.1585 91.6356 62.2243 91.9262 62.1987C92.6707 62.1331 93.4484 61.6665 94.2595 60.7989C95.0705 59.9313 95.8467 58.6688 96.5881 57.0114ZM104.497 47.7085C104.454 47.2272 104.561 46.8793 104.817 46.6646C105.071 46.4409 105.512 46.3013 106.138 46.2461C106.365 46.2261 106.558 46.232 106.716 46.2638C106.883 46.2857 107.026 46.3463 107.144 46.4456C107.272 46.5442 107.375 46.6815 107.455 46.8574C107.543 47.0235 107.622 47.2408 107.691 47.5092C107.874 48.3439 108.069 49.2051 108.276 50.0928C108.491 50.9796 108.711 51.8706 108.937 52.7657C109.027 53.1695 109.259 53.355 109.631 53.3222C109.731 53.3134 109.893 53.2899 110.119 53.2517C110.352 53.2036 110.627 53.152 110.942 53.0967C111.257 53.0324 111.594 52.966 111.954 52.8977C112.323 52.8286 112.688 52.7644 113.049 52.7051C113.418 52.6359 113.765 52.5779 114.09 52.5309C114.424 52.474 114.718 52.4344 114.972 52.412C115.172 52.3944 115.334 52.4212 115.459 52.4925C115.584 52.5548 115.684 52.6466 115.758 52.7681C115.841 52.8798 115.899 53.0119 115.93 53.1647C115.971 53.3076 115.997 53.4562 116.011 53.6105C116.023 53.7467 116.008 53.8898 115.966 54.0399C115.934 54.1892 115.877 54.3268 115.797 54.4529C115.725 54.569 115.629 54.669 115.508 54.7529C115.387 54.8367 115.245 54.8859 115.082 54.9003C114.292 54.9699 113.495 55.0676 112.692 55.1933C111.897 55.3092 111.104 55.4432 110.312 55.5954C109.908 55.6859 109.722 55.9082 109.753 56.2623C109.755 56.2895 109.763 56.3254 109.776 56.37C109.788 56.4055 109.796 56.4369 109.798 56.4641C109.977 57.2444 110.142 57.9756 110.294 58.6576C110.454 59.3388 110.59 59.949 110.702 60.4882C110.822 61.0175 110.916 61.4621 110.984 61.8221C111.061 62.1722 111.104 62.4062 111.115 62.5243C111.144 62.8511 111.136 63.1263 111.092 63.3498C111.048 63.5824 110.96 63.7732 110.826 63.9222C110.694 64.0803 110.508 64.1973 110.267 64.2734C110.037 64.3578 109.74 64.416 109.377 64.448C109.032 64.4785 108.77 64.4192 108.592 64.2701C108.415 64.1211 108.302 63.8794 108.254 63.5451C108.105 62.4786 107.924 61.4103 107.711 60.3402C107.497 59.2611 107.265 58.1881 107.015 57.1213C106.899 56.7381 106.677 56.5609 106.351 56.5897C106.323 56.5921 106.292 56.5995 106.256 56.6117C106.221 56.624 106.19 56.6314 106.162 56.6338C105.611 56.8105 105.091 56.9845 104.602 57.1556C104.114 57.3268 103.659 57.5042 103.236 57.6879C102.998 57.7912 102.785 57.8694 102.598 57.9226C102.409 57.9666 102.238 57.9954 102.084 58.0091C101.875 58.0275 101.713 57.9503 101.597 57.7775C101.48 57.5956 101.409 57.364 101.384 57.0825C101.376 56.9827 101.375 56.8684 101.382 56.7397C101.388 56.6019 101.412 56.467 101.456 56.3351C101.489 56.1949 101.551 56.0659 101.641 55.9482C101.722 55.8221 101.84 55.7156 101.997 55.6285C102.365 55.4406 102.86 55.2368 103.481 55.0174C104.101 54.7888 104.804 54.5667 105.59 54.351C105.768 54.2896 105.902 54.2045 105.993 54.0958C106.093 53.9773 106.133 53.8136 106.115 53.6048C106.111 53.5594 106.107 53.514 106.103 53.4686C106.098 53.4141 106.084 53.3604 106.061 53.3075C105.842 52.485 105.635 51.7393 105.438 51.0704C105.25 50.3916 105.085 49.8114 104.942 49.3299C104.808 48.8477 104.701 48.4682 104.622 48.1915C104.543 47.9149 104.501 47.7538 104.497 47.7085ZM125.057 56.8892C125.164 58.1058 125.433 59.0291 125.864 59.6591C126.294 60.2891 126.864 60.5728 127.572 60.5104C128.017 60.4711 128.414 60.3035 128.763 60.0073C129.121 59.7104 129.415 59.3139 129.646 58.8177C129.877 58.3216 130.036 57.7448 130.125 57.0874C130.222 56.42 130.236 55.705 130.169 54.9424C130.128 54.4793 130.075 54.0814 130.009 53.7487C129.942 53.4069 129.874 53.1063 129.806 52.847C129.745 52.5779 129.688 52.3405 129.633 52.1348C129.578 51.9292 129.543 51.7311 129.526 51.5404C129.5 51.2499 129.604 51.0302 129.838 50.8815C130.072 50.7237 130.456 50.6212 130.992 50.5739C131.673 50.5139 132.213 50.6218 132.612 50.8977C133.021 51.1727 133.251 51.6054 133.303 52.1955C133.445 53.8026 133.413 55.2602 133.208 56.5684C133.013 57.8758 132.659 59.005 132.148 59.9559C131.646 60.8969 130.998 61.6448 130.205 62.1997C129.412 62.7545 128.498 63.0776 127.463 63.1689C126.728 63.2337 126.033 63.1394 125.379 62.886C124.736 62.6408 124.163 62.2658 123.661 61.7611C123.167 61.2465 122.76 60.6236 122.439 59.8924C122.118 59.1522 121.917 58.3281 121.837 57.4202C121.806 57.0751 121.783 56.7066 121.767 56.3146C121.751 55.9226 121.741 55.5025 121.738 55.0545C121.734 54.5973 121.737 54.103 121.745 53.5716C121.762 53.0394 121.779 52.4614 121.798 51.8376C121.802 51.5719 121.906 51.3522 122.11 51.1787C122.323 50.9952 122.601 50.8883 122.946 50.8579C123.255 50.8307 123.548 50.8368 123.826 50.8764C124.104 50.9159 124.344 50.9817 124.544 51.0739C124.753 51.1652 124.919 51.2787 125.04 51.4144C125.171 51.5492 125.244 51.6984 125.258 51.8618C125.273 52.0252 125.259 52.2872 125.218 52.6477C125.185 52.9983 125.147 53.4042 125.106 53.8654C125.072 54.3167 125.042 54.8088 125.016 55.3418C124.998 55.865 125.012 56.3807 125.057 56.8892ZM138.072 48.6869C138.68 48.6333 139.314 48.6597 139.973 48.7663C140.631 48.8638 141.239 49.0161 141.798 49.2231C142.355 49.421 142.82 49.6591 143.192 49.9373C143.564 50.2156 143.763 50.5 143.789 50.7906C143.801 50.9358 143.752 51.1049 143.641 51.2977C143.529 51.4814 143.39 51.663 143.223 51.8424C143.055 52.0128 142.866 52.162 142.658 52.2902C142.458 52.4085 142.276 52.4748 142.113 52.4892C141.895 52.5084 141.642 52.4393 141.354 52.2817C141.074 52.1233 140.762 51.9496 140.415 51.7605C140.078 51.5616 139.71 51.3881 139.313 51.2401C138.915 51.0922 138.494 51.0378 138.049 51.077C137.759 51.1027 137.525 51.1965 137.347 51.3586C137.177 51.5108 137.104 51.714 137.126 51.9682C137.146 52.1952 137.275 52.4171 137.514 52.634C137.752 52.8417 138.059 53.0526 138.435 53.2665C138.819 53.4796 139.251 53.7024 139.729 53.9347C140.207 54.1671 140.695 54.4168 141.195 54.6838C141.703 54.9501 142.2 55.2448 142.686 55.5679C143.172 55.8911 143.611 56.2504 144.003 56.6459C144.404 57.0406 144.736 57.4826 144.998 57.9718C145.26 58.452 145.417 58.9871 145.469 59.5773C145.514 60.0857 145.464 60.5568 145.319 60.9904C145.175 61.4241 144.947 61.8056 144.638 62.1348C144.328 62.464 143.949 62.7308 143.501 62.9351C143.052 63.1393 142.551 63.2659 141.997 63.3147C141.298 63.3763 140.644 63.3242 140.034 63.1584C139.426 63.0016 138.892 62.7559 138.432 62.4213C137.973 62.0866 137.597 61.6714 137.307 61.1755C137.025 60.6787 136.857 60.1217 136.802 59.5043C136.732 58.7053 136.821 58.1118 137.071 57.7238C137.329 57.335 137.767 57.1134 138.385 57.059C138.766 57.0254 139.077 57.0712 139.316 57.1964C139.556 57.3217 139.685 57.4887 139.704 57.6975C139.713 57.8065 139.705 57.9216 139.679 58.0428C139.653 58.155 139.622 58.2766 139.588 58.4077C139.562 58.529 139.537 58.6593 139.513 58.7987C139.497 58.9373 139.496 59.0747 139.508 59.2108C139.529 59.4469 139.603 59.6691 139.731 59.8774C139.859 60.0857 140.022 60.2635 140.217 60.411C140.423 60.5666 140.653 60.6836 140.907 60.7619C141.161 60.8401 141.424 60.8673 141.697 60.8432C142.423 60.7792 142.76 60.4475 142.707 59.8483C142.665 59.3762 142.44 58.9477 142.031 58.5629C141.621 58.169 141.117 57.7971 140.519 57.4472C139.92 57.0883 139.276 56.7334 138.586 56.3825C137.905 56.0307 137.264 55.6572 136.662 55.262C136.059 54.8667 135.55 54.4358 135.134 53.9693C134.717 53.4937 134.482 52.9608 134.43 52.3706C134.387 51.8803 134.447 51.4221 134.611 50.9959C134.784 50.5689 135.034 50.1946 135.363 49.8728C135.691 49.542 136.083 49.274 136.541 49.069C137.008 48.8631 137.518 48.7357 138.072 48.6869ZM157.319 55.8972C157.562 55.647 157.811 55.5107 158.065 55.4883C158.21 55.4755 158.345 55.5002 158.47 55.5624C158.594 55.6247 158.736 55.7265 158.895 55.8681C159.049 56.0649 159.16 56.229 159.226 56.3604C159.301 56.4819 159.344 56.6062 159.355 56.7333C159.379 57.0057 159.266 57.2765 159.015 57.5456C158.611 57.9472 158.168 58.3157 157.685 58.6511C157.201 58.9774 156.692 59.2648 156.155 59.5134C155.619 59.762 155.06 59.9622 154.479 60.1141C153.898 60.2751 153.318 60.3812 152.737 60.4325C152.001 60.4973 151.303 60.4628 150.641 60.329C149.981 60.2043 149.381 59.9918 148.842 59.6916C148.312 59.3907 147.854 59.0148 147.466 58.564C147.078 58.1041 146.784 57.5764 146.585 56.9809C146.481 56.7339 146.39 56.5773 146.311 56.5111C146.24 56.435 146.127 56.4037 145.973 56.4173C145.637 56.4469 145.371 56.388 145.175 56.2406C144.979 56.0932 144.867 55.8652 144.84 55.5565C144.829 55.4293 144.831 55.3468 144.846 55.3089L144.849 55.0341C144.866 54.7033 144.931 54.4596 145.045 54.3031C145.169 54.1458 145.371 54.0548 145.653 54.03L145.857 54.012C146.238 53.9783 146.49 53.7777 146.614 53.41C146.84 52.7587 147.148 52.155 147.538 51.5991C147.928 51.0431 148.38 50.5596 148.893 50.1484C149.404 49.7281 149.96 49.3908 150.56 49.1366C151.168 48.8726 151.795 48.7121 152.439 48.6553C153.111 48.596 153.746 48.6407 154.345 48.7892C154.952 48.9278 155.489 49.1504 155.955 49.457C156.421 49.7636 156.797 50.1376 157.083 50.579C157.378 51.0196 157.549 51.5078 157.597 52.0435C157.629 52.4157 157.587 52.7626 157.469 53.0841C157.351 53.4056 157.166 53.6964 156.914 53.9565C156.662 54.2075 156.347 54.4229 155.969 54.6026C155.601 54.7814 155.173 54.9152 154.687 55.0038L150.003 55.8972C149.822 55.9132 149.676 55.9718 149.566 56.073C149.465 56.1734 149.421 56.3008 149.435 56.4552C149.456 56.6912 149.562 56.9106 149.754 57.1133C149.955 57.3152 150.208 57.4896 150.514 57.6365C150.828 57.7735 151.18 57.8751 151.57 57.9414C151.969 58.0068 152.373 58.0215 152.782 57.9855C153.172 57.9511 153.568 57.8795 153.97 57.7709C154.381 57.6523 154.779 57.5028 155.166 57.3223C155.562 57.141 155.942 56.9337 156.305 56.7003C156.668 56.4578 157.006 56.1902 157.319 55.8972ZM153.972 52.6513C154.106 52.6121 154.218 52.5381 154.309 52.4294C154.399 52.3117 154.438 52.1756 154.424 52.0213C154.412 51.8851 154.351 51.7624 154.241 51.6531C154.13 51.5439 153.985 51.4515 153.805 51.3759C153.623 51.2913 153.417 51.2317 153.185 51.1973C152.953 51.1628 152.71 51.1568 152.456 51.1792C152.084 51.212 151.707 51.3001 151.326 51.4435C150.945 51.5869 150.604 51.7634 150.302 51.973C150 52.1735 149.758 52.3915 149.578 52.627C149.396 52.8535 149.315 53.0711 149.333 53.2799C149.352 53.4888 149.488 53.582 149.742 53.5595C149.897 53.5459 150.145 53.5058 150.487 53.439C150.828 53.3723 151.206 53.2978 151.62 53.2156C152.033 53.1243 152.45 53.028 152.871 52.9268C153.292 52.8257 153.659 52.7338 153.972 52.6513ZM166.884 47.7933C166.548 47.8229 166.261 47.9397 166.023 48.1437C165.784 48.3387 165.588 48.603 165.434 48.9368C165.28 49.2615 165.162 49.6424 165.082 50.0796C165.001 50.5076 164.946 50.9745 164.917 51.4803C164.889 51.9861 164.885 52.5125 164.905 53.0597C164.926 53.6069 164.961 54.1574 165.01 54.7112C165.074 55.4376 165.164 56.1524 165.281 56.8558C165.407 57.5493 165.496 58.1957 165.548 58.7949C165.583 59.1853 165.464 59.5023 165.193 59.7458C164.923 59.9984 164.519 60.1484 163.984 60.1956C163.884 60.2044 163.77 60.2053 163.641 60.1984C163.512 60.1914 163.386 60.1659 163.264 60.1218C163.15 60.077 163.043 60.0086 162.944 59.9167C162.854 59.8332 162.797 59.71 162.774 59.5474C162.622 58.7556 162.432 57.9489 162.203 57.1272C161.975 56.3055 161.707 55.492 161.398 54.6866C161.097 53.8713 160.748 53.0695 160.349 52.2812C159.959 51.492 159.521 50.7255 159.034 49.9815C158.95 49.8517 158.875 49.7302 158.81 49.617C158.754 49.5029 158.721 49.3915 158.712 49.2825C158.7 49.1463 158.746 48.9958 158.85 48.8311C158.963 48.6564 159.104 48.493 159.274 48.3408C159.453 48.1878 159.647 48.0609 159.858 47.9599C160.077 47.8491 160.291 47.7845 160.5 47.7661C160.845 47.7357 161.17 47.9494 161.476 48.4074C161.781 48.8563 162.093 49.5929 162.412 50.617C162.473 50.7946 162.521 50.9185 162.554 50.9887C162.588 51.0589 162.627 51.092 162.673 51.088C162.773 51.0792 162.823 50.9193 162.823 50.6082C162.856 49.736 162.976 48.9797 163.185 48.339C163.393 47.6893 163.675 47.1475 164.03 46.7136C164.394 46.2698 164.821 45.9302 165.313 45.6947C165.814 45.4584 166.373 45.313 166.99 45.2586C167.344 45.2273 167.706 45.2275 168.074 45.259C168.443 45.2906 168.778 45.3571 169.08 45.4586C169.382 45.5601 169.632 45.6936 169.829 45.8592C170.027 46.0247 170.136 46.221 170.156 46.448C170.17 46.6114 170.151 46.8098 170.098 47.0432C170.054 47.2667 169.986 47.4877 169.896 47.7061C169.805 47.9155 169.693 48.0992 169.56 48.2573C169.436 48.4055 169.301 48.486 169.156 48.4988C168.993 48.5132 168.83 48.4818 168.667 48.4046C168.504 48.3184 168.327 48.2288 168.136 48.1358C167.954 48.0421 167.759 47.9586 167.551 47.8855C167.352 47.8024 167.129 47.7717 166.884 47.7933ZM41.0157 89.6948C40.9844 89.3407 41.1197 89.0589 41.4215 88.8493C41.7224 88.6306 42.168 88.4952 42.7582 88.4432C42.8943 88.4312 43.0185 88.4385 43.1307 88.4652C43.2428 88.4919 43.3446 88.5562 43.4359 88.6579C43.5355 88.7498 43.6296 88.8833 43.7183 89.0585C43.8069 89.2337 43.9 89.4588 43.9974 89.7338C44.0981 90.0452 44.1847 90.1977 44.2573 90.1913C44.3209 90.1857 44.3865 90.0472 44.454 89.7759C44.5718 89.244 44.7456 88.7757 44.9753 88.3712C45.2132 87.9568 45.4889 87.6076 45.8025 87.3238C46.1152 87.0309 46.4611 86.8036 46.8403 86.6421C47.2286 86.4798 47.6407 86.3794 48.0765 86.3409C48.9572 86.2633 49.7937 86.3588 50.586 86.6275C51.3774 86.8871 52.0761 87.2876 52.682 87.8289C53.2871 88.3611 53.7837 89.0127 54.172 89.7837C54.5594 90.5456 54.794 91.3896 54.8756 92.3156C54.9621 93.2962 54.8696 94.2194 54.5983 95.0851C54.336 95.95 53.9275 96.7135 53.3728 97.3754C52.8174 98.0283 52.1322 98.5599 51.3175 98.9703C50.5126 99.389 49.6108 99.6424 48.6121 99.7304L47.9151 99.7644C47.5065 99.8005 47.3227 100.05 47.3635 100.513L48.6093 106.703C48.6138 106.858 48.5717 107.004 48.4831 107.14C48.4043 107.284 48.2876 107.413 48.133 107.527C47.9874 107.641 47.8081 107.734 47.595 107.808C47.391 107.881 47.1755 107.927 46.9485 107.947C46.2948 108.005 45.9219 107.823 45.8298 107.401C45.4934 105.765 45.1415 104.213 44.7742 102.745C44.4159 101.276 44.0577 99.9124 43.6997 98.6538C43.3499 97.3854 43.0151 96.2346 42.6953 95.2014C42.3754 94.1682 42.0903 93.2692 41.8399 92.5044C41.5985 91.7388 41.4063 91.1152 41.2632 90.6337C41.111 90.1531 41.0285 89.8401 41.0157 89.6948ZM45.7589 92.8999C45.8109 93.4901 45.8853 94.0737 45.9819 94.6508C46.0777 95.2188 46.2052 95.8343 46.3643 96.4974C46.4548 96.9012 46.6977 97.1131 47.0929 97.1331C47.3338 97.1668 47.6019 97.198 47.8972 97.2269C48.2008 97.2459 48.4525 97.2466 48.6523 97.2289C49.2333 97.1777 49.7523 97.045 50.2093 96.8309C50.6662 96.6167 51.0486 96.336 51.3565 95.9886C51.6636 95.6321 51.8884 95.2234 52.0307 94.7625C52.1731 94.3016 52.2202 93.7988 52.1722 93.254C52.1138 92.5912 51.9685 91.9818 51.7365 91.4258C51.5037 90.8608 51.2096 90.3789 50.8541 89.9802C50.5078 89.5807 50.1105 89.2772 49.6621 89.0696C49.2229 88.8613 48.7581 88.7788 48.2678 88.822C47.8411 88.8596 47.4591 88.9894 47.1218 89.2113C46.7928 89.4233 46.516 89.7085 46.2914 90.0668C46.0751 90.4153 45.9196 90.8316 45.8251 91.3157C45.7305 91.7999 45.7084 92.328 45.7589 92.8999ZM63.3862 87.036C63.0502 87.0656 62.7632 87.1824 62.5249 87.3864C62.2859 87.5813 62.0896 87.8457 61.9361 88.1795C61.7817 88.5042 61.6643 88.8851 61.5839 89.3223C61.5027 89.7503 61.4478 90.2172 61.4192 90.723C61.3906 91.2288 61.3867 91.7552 61.4075 92.3024C61.4283 92.8496 61.4631 93.4001 61.512 93.9539C61.576 94.6803 61.6665 95.3951 61.7834 96.0985C61.9086 96.792 61.9976 97.4384 62.0505 98.0376C62.0849 98.428 61.9665 98.745 61.6951 98.9885C61.4246 99.2411 61.0215 99.391 60.4858 99.4383C60.386 99.4471 60.2717 99.448 60.1429 99.4411C60.0142 99.4341 59.8885 99.4086 59.7656 99.3645C59.6519 99.3197 59.5452 99.2513 59.4456 99.1594C59.3559 99.0758 59.2993 98.9527 59.2758 98.7901C59.1236 97.9983 58.9335 97.1916 58.7055 96.3699C58.4775 95.5482 58.2091 94.7347 57.9001 93.9293C57.5995 93.114 57.2497 92.3122 56.8508 91.5239C56.461 90.7347 56.0228 89.9682 55.5363 89.2242C55.4517 89.0944 55.3769 88.9729 55.312 88.8597C55.2562 88.7456 55.2235 88.6341 55.2139 88.5252C55.2019 88.389 55.2481 88.2385 55.3525 88.0738C55.4652 87.8991 55.6064 87.7357 55.7759 87.5835C55.9546 87.4305 56.1493 87.3035 56.36 87.2026C56.5789 87.0918 56.7928 87.0272 57.0017 87.0088C57.3467 86.9784 57.6721 87.1921 57.9778 87.6501C58.2827 88.099 58.5947 88.8355 58.9138 89.8597C58.9752 90.0372 59.0227 90.1612 59.0564 90.2314C59.09 90.3016 59.1295 90.3347 59.1749 90.3307C59.2748 90.3219 59.3247 90.162 59.3247 89.8509C59.3576 88.9787 59.4785 88.2223 59.6874 87.5817C59.8954 86.932 60.1771 86.3902 60.5322 85.9563C60.8957 85.5125 61.3233 85.1729 61.8149 84.9374C62.3156 84.7011 62.8747 84.5557 63.4921 84.5013C63.8461 84.47 64.2076 84.4702 64.5764 84.5017C64.9451 84.5332 65.2804 84.5998 65.5821 84.7013C65.8839 84.8027 66.1336 84.9363 66.3312 85.1019C66.5288 85.2674 66.6376 85.4637 66.6576 85.6907C66.672 85.8541 66.6529 86.0525 66.6003 86.2859C66.5559 86.5094 66.4885 86.7304 66.398 86.9488C66.3066 87.1582 66.1947 87.3419 66.0623 87.5C65.9381 87.6482 65.8034 87.7287 65.6581 87.7415C65.4947 87.7559 65.3318 87.7245 65.1694 87.6473C65.0063 87.5611 64.8291 87.4715 64.6379 87.3785C64.4558 87.2848 64.2608 87.2013 64.0531 87.1281C63.8536 87.0451 63.6313 87.0144 63.3862 87.036ZM66.5687 92.4649C66.5551 92.3106 66.558 92.1365 66.5775 91.9426C66.597 91.7487 66.5968 91.5383 66.5768 91.3113C66.5632 91.157 66.4846 91.0449 66.3413 90.9752C66.2069 90.9047 66.0537 90.8267 65.8814 90.7413C65.7092 90.6558 65.5482 90.5419 65.3984 90.3996C65.2577 90.2564 65.1745 90.0396 65.1489 89.7491C65.1304 89.5402 65.1665 89.3266 65.257 89.1082C65.3567 88.8889 65.5078 88.6835 65.7105 88.4917C66.211 88.045 66.7332 87.6375 67.2772 87.2693C67.8302 86.9003 68.3831 86.5816 68.9359 86.3133C69.4978 86.0441 70.055 85.8257 70.6075 85.6581C71.16 85.4904 71.695 85.3837 72.2125 85.3381C73.0842 85.2613 73.9157 85.3526 74.7072 85.6122C75.507 85.862 76.2131 86.2435 76.8257 86.7567C77.4465 87.2601 77.9536 87.8742 78.3469 88.599C78.7485 89.3139 78.9869 90.0981 79.0622 90.9515C79.1358 91.7868 79.0288 92.5969 78.7412 93.3817C78.4618 94.1566 78.0519 94.8516 77.5114 95.4665C76.9708 96.0815 76.3155 96.5876 75.5453 96.9849C74.785 97.3905 73.9646 97.6321 73.0839 97.7098C72.2213 97.7858 71.4095 97.711 70.6485 97.4853C69.8874 97.2596 69.2167 96.9162 68.6361 96.455C68.0548 95.9847 67.5835 95.4132 67.2223 94.7405C66.8602 94.0588 66.6423 93.3002 66.5687 92.4649ZM73.1673 95.2319C73.5487 95.1983 73.9368 95.0863 74.3318 94.8959C74.7267 94.7056 75.0794 94.4503 75.3897 94.1301C75.7083 93.8001 75.9577 93.4121 76.138 92.9662C76.3273 92.5194 76.3984 92.0282 76.3512 91.4925C76.3031 90.9478 76.1584 90.4481 75.917 89.9936C75.6757 89.5391 75.3627 89.1549 74.9782 88.8411C74.602 88.5175 74.1644 88.277 73.6656 88.1197C73.1759 87.9616 72.6541 87.9069 72.1002 87.9558C71.0924 88.0446 70.3439 88.376 69.8547 88.9498C69.3646 89.5146 69.1672 90.3372 69.2625 91.4176C69.3145 92.0078 69.4492 92.5495 69.6666 93.0427C69.8922 93.526 70.1803 93.9398 70.5309 94.2841C70.8807 94.6192 71.2782 94.8724 71.7233 95.0436C72.1775 95.214 72.6589 95.2768 73.1673 95.2319ZM81.5483 92.5303C81.1885 90.4209 80.8026 88.3276 80.3907 86.2502C79.9878 84.1721 79.481 82.1078 78.8701 80.0571C78.8456 79.9861 78.8309 79.9233 78.8261 79.8689C78.8205 79.8053 78.8153 79.7463 78.8105 79.6918C78.792 79.483 78.8169 79.2978 78.885 79.1363C78.9622 78.9739 79.069 78.8364 79.2055 78.7237C79.3411 78.6019 79.4973 78.5058 79.6741 78.4353C79.86 78.364 80.0573 78.3192 80.2662 78.3008C80.82 78.2519 81.2241 78.4771 81.4786 78.9762C81.5926 79.2315 81.7166 79.6003 81.8507 80.0825C81.9938 80.564 82.1437 81.1227 82.3004 81.7585C82.4662 82.3935 82.633 83.0925 82.801 83.8554C82.9681 84.6093 83.1327 85.3863 83.2947 86.1863C83.342 86.4109 83.4246 86.518 83.5427 86.5076C83.6425 86.4988 83.7409 86.4215 83.8379 86.2757C85.0098 84.4155 86.5036 83.4054 88.3195 83.2453C89.0004 83.1853 89.6492 83.279 90.2658 83.5266C90.8824 83.7742 91.4314 84.1375 91.9128 84.6166C92.3943 85.0957 92.7888 85.6785 93.0964 86.3651C93.413 87.0509 93.6074 87.8023 93.6795 88.6195C93.7467 89.3822 93.6866 90.1012 93.4991 90.7765C93.3207 91.451 93.0389 92.0432 92.6538 92.5529C92.2687 93.0627 91.7931 93.4798 91.2269 93.8042C90.6691 94.1187 90.0451 94.3064 89.3551 94.3673C88.5016 94.4425 87.6519 94.3527 86.806 94.0979C85.9592 93.834 85.1478 93.4527 84.3718 92.9538C84.2837 92.8884 84.1943 92.8597 84.1035 92.8677C83.9854 92.8781 83.8821 92.9512 83.7934 93.0872C83.6626 93.2634 83.5178 93.386 83.3592 93.4548C83.1998 93.5146 83.002 93.555 82.766 93.5758C82.0487 93.639 81.6428 93.2905 81.5483 92.5303ZM88.0662 85.8205C87.703 85.8525 87.3475 85.9708 86.9995 86.1753C86.6598 86.37 86.3447 86.6356 86.0541 86.9724C85.7636 87.3091 85.5013 87.7074 85.2674 88.1672C85.0417 88.6171 84.8613 89.1134 84.7261 89.656C84.7104 89.6849 84.7004 89.7269 84.6961 89.7822C84.6918 89.8375 84.6913 89.8833 84.6945 89.9196C84.7081 90.0739 84.773 90.1872 84.8891 90.2593C85.2408 90.5119 85.5999 90.7456 85.9666 90.9603C86.3423 91.1742 86.7107 91.3568 87.0717 91.5079C87.4327 91.6591 87.786 91.7744 88.1315 91.8537C88.4763 91.9239 88.7939 91.9462 89.0845 91.9206C89.7382 91.863 90.2162 91.6287 90.5185 91.2177C90.8299 90.806 90.9536 90.2369 90.8895 89.5106C90.8399 88.9477 90.7307 88.4357 90.5619 87.9748C90.3924 87.5048 90.1835 87.1069 89.9351 86.7811C89.686 86.4462 89.3987 86.1971 89.0732 86.0336C88.756 85.8603 88.4203 85.7893 88.0662 85.8205ZM93.9135 78.9777C93.8719 78.5056 93.9785 78.1576 94.2332 77.9338C94.488 77.7101 94.9286 77.5706 95.5551 77.5153C95.773 77.4961 95.9657 77.502 96.1331 77.533C96.3005 77.564 96.4435 77.6291 96.5621 77.7285C96.6798 77.8188 96.7785 77.9519 96.8581 78.1279C96.9459 78.294 97.0245 78.5112 97.094 78.7796C97.2832 79.5772 97.4761 80.4157 97.6726 81.2951C97.8774 82.1646 98.0731 83.0349 98.2597 83.906C98.4546 84.7672 98.6388 85.611 98.8123 86.4375C98.985 87.255 99.1394 88.0191 99.2752 88.73C99.4194 89.4309 99.5341 90.0568 99.6192 90.6074C99.7126 91.1482 99.7734 91.5774 99.8014 91.8952C99.8302 92.2221 99.8229 92.5018 99.7793 92.7344C99.7449 92.9662 99.661 93.1565 99.5277 93.3055C99.4035 93.4537 99.2308 93.5696 99.0094 93.6532C98.7963 93.7269 98.5263 93.7781 98.1995 93.807C97.8817 93.835 97.6202 93.7757 97.4152 93.6291C97.2192 93.4817 97.1064 93.24 97.0767 92.904C97.0463 92.559 96.9786 92.1029 96.8737 91.5357C96.768 90.9595 96.6385 90.3212 96.4853 89.621C96.3321 88.9209 96.1612 88.1765 95.9727 87.3879C95.7933 86.5985 95.6056 85.819 95.4097 85.0494C95.2228 84.279 95.0387 83.5404 94.8574 82.8335C94.6844 82.1168 94.5281 81.4855 94.3885 80.9396C94.248 80.3847 94.135 79.9326 94.0493 79.5833C93.9628 79.225 93.9175 79.0231 93.9135 78.9777ZM113.499 89.8776C113.743 89.6274 113.991 89.491 114.246 89.4686C114.391 89.4558 114.526 89.4805 114.65 89.5428C114.775 89.605 114.916 89.7069 115.075 89.8484C115.23 90.0452 115.34 90.2093 115.407 90.3407C115.482 90.4622 115.525 90.5865 115.536 90.7136C115.56 90.986 115.446 91.2568 115.196 91.526C114.792 91.9276 114.349 92.296 113.866 92.6314C113.382 92.9577 112.872 93.2451 112.336 93.4937C111.8 93.7423 111.241 93.9426 110.66 94.0945C110.079 94.2555 109.498 94.3616 108.917 94.4128C108.182 94.4777 107.483 94.4432 106.822 94.3094C106.161 94.1846 105.561 93.9721 105.023 93.672C104.493 93.371 104.034 92.9951 103.647 92.5443C103.258 92.0845 102.965 91.5568 102.766 90.9613C102.662 90.7142 102.57 90.5576 102.491 90.4914C102.42 90.4153 102.308 90.384 102.154 90.3976C101.818 90.4273 101.552 90.3684 101.356 90.221C101.16 90.0735 101.048 89.8455 101.021 89.5368C101.01 89.4097 101.011 89.3272 101.026 89.2892L101.03 89.0145C101.046 88.6836 101.112 88.4399 101.226 88.2834C101.349 88.1262 101.552 88.0351 101.833 88.0103L102.038 87.9923C102.419 87.9587 102.671 87.758 102.794 87.3903C103.02 86.739 103.329 86.1354 103.719 85.5794C104.109 85.0235 104.56 84.5399 105.073 84.1287C105.585 83.7084 106.141 83.3712 106.741 83.117C107.349 82.8529 107.975 82.6924 108.62 82.6356C109.292 82.5764 109.927 82.621 110.526 82.7695C111.133 82.9081 111.669 83.1307 112.135 83.4373C112.602 83.7439 112.978 84.1179 113.264 84.5593C113.559 85 113.73 85.4881 113.777 86.0238C113.81 86.3961 113.767 86.7429 113.649 87.0645C113.531 87.386 113.346 87.6768 113.095 87.9368C112.843 88.1878 112.528 88.4032 112.15 88.5829C111.781 88.7618 111.354 88.8955 110.868 88.9842L106.184 89.8775C106.002 89.8936 105.857 89.9522 105.747 90.0534C105.646 90.1538 105.602 90.2811 105.616 90.4355C105.636 90.6716 105.743 90.8909 105.934 91.0936C106.135 91.2955 106.388 91.4699 106.694 91.6168C107.008 91.7538 107.36 91.8554 107.75 91.9217C108.15 91.9871 108.554 92.0018 108.962 91.9658C109.353 91.9314 109.749 91.8598 110.151 91.7512C110.561 91.6326 110.96 91.4831 111.347 91.3026C111.742 91.1213 112.122 90.914 112.486 90.6806C112.849 90.4382 113.187 90.1705 113.499 89.8776ZM110.153 86.6317C110.286 86.5924 110.399 86.5184 110.49 86.4098C110.58 86.292 110.618 86.1559 110.605 86.0016C110.593 85.8654 110.532 85.7427 110.421 85.6335C110.311 85.5243 110.166 85.4318 109.985 85.3563C109.804 85.2716 109.597 85.212 109.365 85.1776C109.134 85.1431 108.891 85.1371 108.636 85.1595C108.264 85.1923 107.888 85.2804 107.507 85.4238C107.126 85.5672 106.785 85.7437 106.483 85.9533C106.18 86.1538 105.939 86.3719 105.758 86.6074C105.577 86.8338 105.496 87.0514 105.514 87.2603C105.532 87.4691 105.669 87.5623 105.923 87.5399C106.077 87.5263 106.325 87.4861 106.667 87.4194C107.009 87.3526 107.387 87.2781 107.8 87.1959C108.213 87.1046 108.63 87.0084 109.051 86.9072C109.472 86.806 109.84 86.7141 110.153 86.6317ZM117.845 93.0903C117.675 91.8883 117.473 90.7853 117.238 89.7812C117.011 88.7673 116.787 87.8858 116.565 87.1367C116.353 86.3869 116.167 85.7811 116.007 85.3194C115.857 84.8568 115.776 84.5666 115.766 84.4485C115.75 84.276 115.799 84.1024 115.912 83.9278C116.034 83.7524 116.189 83.5968 116.379 83.4612C116.567 83.3165 116.772 83.1978 116.992 83.1051C117.222 83.0117 117.432 82.9565 117.623 82.9397C117.777 82.9261 117.911 82.9418 118.025 82.9866C118.148 83.0307 118.237 83.1143 118.294 83.2374C118.353 83.3877 118.408 83.5476 118.46 83.7169C118.52 83.8763 118.583 84.072 118.649 84.3041C118.733 84.6352 118.82 84.7968 118.911 84.7888C119.011 84.78 119.111 84.6202 119.212 84.3093C119.357 83.8757 119.522 83.5134 119.706 83.2226C119.891 82.9318 120.095 82.6989 120.317 82.5237C120.548 82.3387 120.788 82.2032 121.036 82.1172C121.294 82.0304 121.564 81.9746 121.845 81.9498C122.699 81.8745 123.45 82.1468 124.099 82.7667C124.758 83.3857 125.311 84.3159 125.759 85.5574C125.817 85.6987 125.867 85.7904 125.907 85.8326C125.946 85.8657 125.989 85.8803 126.034 85.8763C126.08 85.8723 126.123 85.8501 126.166 85.8098C126.216 85.7596 126.258 85.669 126.293 85.5378C126.459 84.9285 126.669 84.4067 126.923 83.9725C127.177 83.5292 127.447 83.1669 127.733 82.8854C128.028 82.5941 128.333 82.375 128.65 82.2282C128.966 82.0813 129.274 81.9947 129.574 81.9683C130.128 81.9194 130.645 82.0797 131.126 82.449C131.615 82.8085 132.069 83.3952 132.489 84.2091C132.917 85.0132 133.315 86.0487 133.682 87.3155C134.059 88.5725 134.411 90.0741 134.738 91.8203C134.782 92.3105 134.662 92.6642 134.379 92.8813C134.097 93.1075 133.697 93.2434 133.18 93.289C132.844 93.3186 132.574 93.2692 132.371 93.1408C132.167 93.0123 132.041 92.8313 131.993 92.5976C131.764 91.346 131.534 90.2363 131.302 89.2685C131.078 88.2909 130.855 87.4733 130.633 86.8159C130.409 86.1493 130.182 85.6478 129.951 85.3113C129.729 84.974 129.5 84.8158 129.264 84.8366C129.146 84.847 129.004 84.9465 128.837 85.135C128.68 85.3227 128.522 85.6569 128.363 86.1376C128.203 86.6092 128.05 87.2541 127.902 88.0723C127.754 88.8814 127.635 89.9121 127.544 91.1645C127.52 91.5144 127.375 91.7925 127.109 91.9989C126.853 92.2045 126.525 92.3249 126.126 92.3601C125.663 92.401 125.334 92.3567 125.139 92.2275C124.954 92.0974 124.837 91.8607 124.789 91.5173C124.699 90.9212 124.583 90.3322 124.441 89.75C124.306 89.158 124.152 88.5997 123.977 88.0752C123.802 87.5417 123.617 87.0547 123.423 86.6144C123.228 86.1649 123.029 85.7799 122.827 85.4591C122.624 85.1293 122.423 84.8771 122.225 84.7024C122.027 84.5278 121.841 84.4481 121.669 84.4633C121.442 84.4833 121.233 84.6618 121.043 84.9988C120.863 85.335 120.712 85.8012 120.59 86.3975C120.478 86.993 120.408 87.7037 120.38 88.5297C120.352 89.3556 120.383 90.2725 120.472 91.2803C120.487 91.4528 120.507 91.6249 120.531 91.7966C120.555 91.9593 120.574 92.1314 120.59 92.313C120.614 92.5853 120.589 92.8118 120.513 92.9923C120.446 93.172 120.336 93.319 120.181 93.4333C120.036 93.5468 119.86 93.6309 119.655 93.6856C119.449 93.7403 119.224 93.7785 118.978 93.8001C118.751 93.8201 118.568 93.818 118.429 93.7937C118.29 93.7785 118.182 93.7423 118.104 93.6851C118.025 93.628 117.968 93.5461 117.931 93.4396C117.895 93.3421 117.866 93.2257 117.845 93.0903ZM150.506 77.6246C151.005 77.5806 151.493 77.6153 151.97 77.7288C152.446 77.8423 152.874 78.0197 153.252 78.2608C153.63 78.502 153.94 78.804 154.183 79.1669C154.434 79.5291 154.58 79.9416 154.621 80.4047C154.638 80.5954 154.609 80.7855 154.534 80.9751C154.468 81.1548 154.368 81.3191 154.235 81.4681C154.101 81.6081 153.942 81.7273 153.758 81.8258C153.583 81.9145 153.396 81.9676 153.196 81.9852C153.178 81.9868 153.16 81.993 153.143 82.0036C153.134 82.0044 153.12 82.0056 153.102 82.0072C153.084 82.0179 153.067 82.0241 153.048 82.0257L153.199 83.1104C153.35 84.4055 153.615 85.3383 153.995 85.9087C154.384 86.4783 154.846 86.7395 155.381 86.6923C155.572 86.6755 155.739 86.6425 155.881 86.5934C156.032 86.5434 156.169 86.4902 156.292 86.4336C156.423 86.3671 156.546 86.3105 156.661 86.2638C156.776 86.217 156.893 86.1885 157.011 86.1781C157.219 86.1596 157.409 86.2344 157.579 86.4024C157.759 86.5696 157.86 86.7803 157.882 87.0345C157.905 87.2887 157.827 87.5518 157.65 87.8236C157.482 88.0946 157.248 88.3486 156.948 88.5854C156.648 88.8132 156.304 89.0082 155.916 89.1706C155.527 89.3329 155.129 89.4321 154.72 89.4681C154.012 89.5306 153.365 89.2949 152.778 88.761C152.19 88.2181 151.733 87.3892 151.406 86.2743C151.335 86.0975 151.254 86.0131 151.164 86.0211C151.055 86.0307 150.964 86.0936 150.892 86.2098C150.093 87.4239 149.211 88.3619 148.244 89.0235C147.277 89.6761 146.299 90.046 145.309 90.1333C144.846 90.1741 144.422 90.1429 144.038 90.0395C143.654 89.9361 143.319 89.7735 143.034 89.5516C142.757 89.3198 142.531 89.0332 142.354 88.6919C142.186 88.3408 142.082 87.9427 142.043 87.4979C141.988 86.8714 142.066 86.2011 142.278 85.4871C142.498 84.7722 142.815 84.058 143.228 83.3445C143.641 82.631 144.129 81.9429 144.693 81.2801C145.266 80.6166 145.872 80.0233 146.512 79.5002C147.162 78.9763 147.828 78.5469 148.512 78.2121C149.197 77.8773 149.861 77.6814 150.506 77.6246ZM150.472 82.3764C150.608 82.0533 150.738 81.8176 150.862 81.6694C150.986 81.5122 151.172 81.3996 151.423 81.3318C151.62 81.2869 151.714 81.2146 151.705 81.1147C151.699 81.0421 151.665 80.9673 151.603 80.8904C151.41 80.6695 151.21 80.4813 151.005 80.3256C150.798 80.1608 150.536 80.0924 150.218 80.1204C149.873 80.1509 149.496 80.2848 149.087 80.5221C148.678 80.7595 148.265 81.0658 147.85 81.441C147.443 81.8062 147.045 82.2211 146.656 82.6854C146.275 83.1399 145.941 83.604 145.653 84.0777C145.366 84.5514 145.141 85.015 144.98 85.4684C144.819 85.9218 144.753 86.321 144.784 86.6661C144.811 86.9748 144.914 87.2081 145.092 87.3662C145.28 87.5235 145.519 87.5894 145.81 87.5638C146.554 87.4981 147.332 87.0315 148.143 86.1639C148.954 85.2964 149.73 84.0339 150.472 82.3764ZM164.984 78.0772C164.648 78.1069 164.361 78.2237 164.123 78.4277C163.884 78.6226 163.688 78.887 163.534 79.2207C163.38 79.5455 163.262 79.9264 163.182 80.3635C163.101 80.7916 163.046 81.2585 163.017 81.7643C162.989 82.27 162.985 82.7965 163.005 83.3437C163.026 83.8908 163.061 84.4413 163.11 84.9952C163.174 85.7215 163.264 86.4364 163.381 87.1398C163.507 87.8333 163.596 88.4796 163.648 89.0789C163.683 89.4693 163.564 89.7863 163.293 90.0298C163.023 90.2824 162.619 90.4323 162.084 90.4795C161.984 90.4883 161.87 90.4893 161.741 90.4823C161.612 90.4754 161.486 90.4499 161.364 90.4058C161.25 90.3609 161.143 90.2926 161.044 90.2007C160.954 90.1171 160.897 89.994 160.874 89.8314C160.722 89.0396 160.531 88.2329 160.303 87.4112C160.075 86.5895 159.807 85.7759 159.498 84.9705C159.197 84.1552 158.848 83.3534 158.449 82.5651C158.059 81.776 157.621 81.0094 157.134 80.2654C157.05 80.1357 156.975 80.0141 156.91 79.9009C156.854 79.7869 156.821 79.6754 156.812 79.5664C156.8 79.4303 156.846 79.2798 156.95 79.115C157.063 78.9404 157.204 78.777 157.374 78.6248C157.553 78.4718 157.747 78.3448 157.958 78.2439C158.177 78.1331 158.391 78.0684 158.6 78.05C158.945 78.0196 159.27 78.2334 159.576 78.6914C159.881 79.1403 160.193 79.8768 160.512 80.9009C160.573 81.0785 160.621 81.2024 160.654 81.2726C160.688 81.3429 160.727 81.376 160.773 81.372C160.873 81.3632 160.923 81.2032 160.923 80.8921C160.956 80.02 161.076 79.2636 161.285 78.623C161.493 77.9733 161.775 77.4315 162.13 76.9976C162.494 76.5538 162.921 76.2141 163.413 75.9786C163.914 75.7423 164.473 75.597 165.09 75.5425C165.444 75.5113 165.806 75.5114 166.174 75.543C166.543 75.5745 166.878 75.641 167.18 75.7425C167.482 75.844 167.732 75.9775 167.929 76.1431C168.127 76.3087 168.236 76.505 168.256 76.7319C168.27 76.8954 168.251 77.0938 168.198 77.3272C168.154 77.5507 168.086 77.7716 167.996 77.9901C167.905 78.1994 167.793 78.3832 167.66 78.5412C167.536 78.6894 167.401 78.7699 167.256 78.7827C167.093 78.7972 166.93 78.7658 166.767 78.6886C166.604 78.6023 166.427 78.5127 166.236 78.4198C166.054 78.326 165.859 78.2426 165.651 78.1694C165.452 78.0863 165.229 78.0556 164.984 78.0772ZM179.715 84.0388C179.958 83.7886 180.207 83.6523 180.461 83.6298C180.607 83.617 180.741 83.6417 180.866 83.704C180.99 83.7662 181.132 83.8681 181.291 84.0096C181.446 84.2064 181.556 84.3705 181.623 84.5019C181.697 84.6234 181.74 84.7477 181.751 84.8748C181.776 85.1472 181.662 85.418 181.411 85.6872C181.008 86.0888 180.564 86.4572 180.081 86.7926C179.598 87.1189 179.088 87.4064 178.552 87.6549C178.015 87.9035 177.457 88.1038 176.875 88.2557C176.295 88.4167 175.714 88.5228 175.133 88.574C174.397 88.6389 173.699 88.6044 173.038 88.4706C172.377 88.3458 171.777 88.1334 171.238 87.8332C170.709 87.5322 170.25 87.1563 169.862 86.7055C169.474 86.2457 169.181 85.718 168.982 85.1225C168.878 84.8755 168.786 84.7188 168.707 84.6526C168.636 84.5765 168.524 84.5452 168.369 84.5588C168.033 84.5885 167.767 84.5296 167.571 84.3822C167.375 84.2347 167.264 84.0067 167.237 83.698C167.225 83.5709 167.227 83.4884 167.242 83.4504L167.245 83.1757C167.262 82.8448 167.327 82.6011 167.442 82.4447C167.565 82.2874 167.768 82.1963 168.049 82.1715L168.253 82.1535C168.635 82.1199 168.887 81.9192 169.01 81.5515C169.236 80.9002 169.544 80.2966 169.935 79.7406C170.325 79.1847 170.776 78.7011 171.289 78.2899C171.801 77.8696 172.357 77.5324 172.956 77.2782C173.565 77.0141 174.191 76.8536 174.836 76.7968C175.507 76.7376 176.143 76.7822 176.741 76.9307C177.348 77.0693 177.885 77.2919 178.351 77.5985C178.817 77.9051 179.194 78.2791 179.479 78.7205C179.775 79.1612 179.946 79.6493 179.993 80.185C180.026 80.5573 179.983 80.9041 179.865 81.2257C179.747 81.5472 179.562 81.838 179.311 82.098C179.058 82.349 178.743 82.5644 178.366 82.7441C177.997 82.923 177.57 83.0567 177.083 83.1454L172.4 84.0388C172.218 84.0548 172.072 84.1134 171.962 84.2146C171.861 84.315 171.818 84.4423 171.831 84.5967C171.852 84.8328 171.958 85.0521 172.15 85.2548C172.351 85.4567 172.604 85.6311 172.91 85.778C173.224 85.915 173.576 86.0166 173.966 86.0829C174.365 86.1483 174.769 86.163 175.178 86.127C175.568 86.0926 175.965 86.021 176.367 85.9124C176.777 85.7938 177.176 85.6443 177.562 85.4638C177.958 85.2825 178.338 85.0752 178.702 84.8418C179.065 84.5994 179.402 84.3317 179.715 84.0388ZM176.368 80.7929C176.502 80.7536 176.614 80.6796 176.706 80.571C176.796 80.4532 176.834 80.3172 176.82 80.1628C176.808 80.0266 176.747 79.9039 176.637 79.7947C176.527 79.6855 176.381 79.5931 176.201 79.5175C176.02 79.4328 175.813 79.3732 175.581 79.3388C175.349 79.3043 175.106 79.2983 174.852 79.3207C174.48 79.3535 174.103 79.4416 173.723 79.585C173.342 79.7284 173.001 79.9049 172.699 80.1145C172.396 80.315 172.155 80.5331 171.974 80.7686C171.793 80.995 171.711 81.2126 171.73 81.4215C171.748 81.6303 171.884 81.7235 172.139 81.7011C172.293 81.6875 172.541 81.6473 172.883 81.5806C173.225 81.5138 173.602 81.4393 174.016 81.3571C174.429 81.2658 174.846 81.1696 175.267 81.0684C175.688 80.9672 176.055 80.8754 176.368 80.7929ZM56.2185 122.176C56.092 120.742 56.1673 119.623 56.4442 118.821C56.7212 118.019 57.182 117.59 57.8266 117.533C58.8526 117.442 59.4437 118.282 59.5998 120.053C59.655 120.679 59.6707 121.273 59.6469 121.833C59.6322 122.392 59.5841 122.936 59.5026 123.465C59.4909 123.539 59.4833 123.609 59.4798 123.673C59.4763 123.737 59.477 123.797 59.4818 123.851C59.4986 124.042 59.5497 124.207 59.6352 124.346C60.1908 125.459 61.0815 125.961 62.3072 125.853C62.743 125.815 63.1432 125.683 63.5077 125.459C63.8722 125.235 64.1808 124.947 64.4334 124.595C64.6853 124.234 64.8688 123.825 64.9839 123.366C65.1081 122.907 65.1474 122.418 65.1017 121.901C65.0505 121.32 64.94 120.845 64.7701 120.475C64.5995 120.097 64.4205 119.779 64.2331 119.521C64.0448 119.254 63.8726 119.013 63.7164 118.798C63.5594 118.574 63.4681 118.316 63.4424 118.026C63.4304 117.89 63.477 117.744 63.5823 117.588C63.6958 117.422 63.8377 117.268 64.0081 117.125C64.1875 116.981 64.3826 116.859 64.5933 116.758C64.8131 116.656 65.0228 116.596 65.2226 116.579C65.4859 116.555 65.7575 116.678 66.0373 116.946C66.3262 117.213 66.5914 117.574 66.8328 118.029C67.0824 118.473 67.2927 118.99 67.4635 119.579C67.6435 120.167 67.7603 120.765 67.8139 121.374C67.8916 122.254 67.8014 123.099 67.5434 123.909C67.2854 124.719 66.901 125.443 66.3901 126.083C65.8792 126.723 65.2622 127.249 64.539 127.66C63.8249 128.071 63.0502 128.313 62.2149 128.387C61.5068 128.449 60.8645 128.378 60.2883 128.172C59.7219 127.975 59.1796 127.584 58.6613 126.998C58.5782 126.886 58.4984 126.811 58.4218 126.772C58.3451 126.733 58.2705 126.717 58.1978 126.723C58.107 126.731 58.0273 126.761 57.9587 126.813C57.8901 126.865 57.8201 126.953 57.7488 127.079C57.2027 127.941 56.5907 128.576 55.9129 128.983C55.2442 129.39 54.4877 129.631 53.6433 129.705C52.7082 129.788 51.841 129.603 51.0417 129.152C50.2524 128.709 49.5528 128.039 48.9429 127.141C48.3331 126.243 47.8282 125.135 47.4282 123.816C47.0275 122.488 46.7534 120.989 46.6061 119.318C46.5461 118.637 46.5237 118.072 46.5389 117.622C46.5534 117.164 46.622 116.801 46.7449 116.534C46.8669 116.257 47.0416 116.059 47.2688 115.938C47.4953 115.809 47.7946 115.727 48.1669 115.695C48.5573 115.66 48.8456 115.712 49.0317 115.852C49.2261 115.981 49.3393 116.227 49.3713 116.59C49.3961 116.872 49.3969 117.192 49.3737 117.551C49.3496 117.901 49.3488 118.203 49.3712 118.457C49.4873 119.773 49.685 120.977 49.9642 122.069C50.2526 123.16 50.5954 124.09 50.9927 124.861C51.3991 125.63 51.8489 126.217 52.3421 126.622C52.8444 127.026 53.3724 127.204 53.9263 127.155C55.1611 127.046 56.0179 126.334 56.4968 125.02C56.5424 124.916 56.5707 124.822 56.5817 124.738C56.5919 124.646 56.5925 124.55 56.5837 124.45C56.5789 124.395 56.5741 124.341 56.5693 124.287C56.5637 124.223 56.5486 124.156 56.5241 124.085C56.4482 123.744 56.3831 123.42 56.3286 123.114C56.2825 122.798 56.2458 122.485 56.2185 122.176ZM81.0246 122.858C81.2679 122.607 81.5167 122.471 81.7709 122.449C81.9162 122.436 82.051 122.461 82.1755 122.523C82.2999 122.585 82.4416 122.687 82.6004 122.828C82.755 123.025 82.8656 123.189 82.9321 123.321C83.0068 123.442 83.0498 123.567 83.061 123.694C83.085 123.966 82.9717 124.237 82.7209 124.506C82.3171 124.908 81.8738 125.276 81.391 125.611C80.9074 125.938 80.3974 126.225 79.8612 126.474C79.325 126.722 78.7662 126.923 78.1849 127.074C77.6043 127.235 77.0235 127.342 76.4424 127.393C75.707 127.458 75.0085 127.423 74.3471 127.289C73.6864 127.165 73.0867 126.952 72.5478 126.652C72.018 126.351 71.5594 125.975 71.172 125.524C70.7837 125.064 70.4901 124.537 70.2912 123.941C70.1871 123.694 70.0955 123.538 70.0165 123.471C69.9457 123.395 69.8332 123.364 69.6788 123.378C69.3429 123.407 69.0769 123.348 68.8809 123.201C68.6849 123.054 68.5733 122.825 68.5461 122.517C68.5349 122.39 68.5368 122.307 68.5517 122.269L68.5549 121.994C68.5715 121.664 68.6369 121.42 68.7512 121.263C68.8746 121.106 69.077 121.015 69.3585 120.99L69.5628 120.972C69.9441 120.939 70.1964 120.738 70.3195 120.37C70.5457 119.719 70.8539 119.115 71.2441 118.559C71.6342 118.003 72.0857 117.52 72.5984 117.109C73.1104 116.688 73.6662 116.351 74.266 116.097C74.8741 115.833 75.5004 115.672 76.1451 115.616C76.8169 115.556 77.4522 115.601 78.0509 115.749C78.6579 115.888 79.1945 116.111 79.6607 116.417C80.1269 116.724 80.503 117.098 80.789 117.539C81.0841 117.98 81.2552 118.468 81.3024 119.004C81.3353 119.376 81.2927 119.723 81.1746 120.044C81.0566 120.366 80.8718 120.657 80.6202 120.917C80.3678 121.168 80.0528 121.383 79.6752 121.563C79.3067 121.742 78.8793 121.876 78.393 121.964L73.7093 122.858C73.5277 122.874 73.3819 122.932 73.2718 123.033C73.1709 123.134 73.1272 123.261 73.1408 123.415C73.1617 123.652 73.2679 123.871 73.4596 124.074C73.6604 124.275 73.9137 124.45 74.2195 124.597C74.5335 124.734 74.8856 124.835 75.2757 124.902C75.6749 124.967 76.0788 124.982 76.4874 124.946C76.8778 124.911 77.2741 124.84 77.6763 124.731C78.0867 124.613 78.4853 124.463 78.872 124.283C79.2677 124.101 79.6475 123.894 80.0112 123.661C80.3741 123.418 80.7119 123.15 81.0246 122.858ZM77.6778 119.612C77.8116 119.572 77.924 119.498 78.015 119.39C78.1053 119.272 78.1436 119.136 78.13 118.982C78.118 118.845 78.0569 118.723 77.9466 118.613C77.8363 118.504 77.6909 118.412 77.5104 118.336C77.3291 118.252 77.1225 118.192 76.8908 118.158C76.659 118.123 76.416 118.117 76.1617 118.139C75.7895 118.172 75.413 118.26 75.0322 118.404C74.6513 118.547 74.3101 118.724 74.0083 118.933C73.7057 119.134 73.4642 119.352 73.2836 119.587C73.1023 119.814 73.0209 120.031 73.0393 120.24C73.0577 120.449 73.194 120.542 73.4482 120.52C73.6026 120.506 73.8507 120.466 74.1925 120.399C74.5343 120.333 74.912 120.258 75.3257 120.176C75.7385 120.085 76.1555 119.988 76.5766 119.887C76.9977 119.786 77.3648 119.694 77.6778 119.612ZM93.0744 112.888C93.6827 112.834 94.3164 112.86 94.9754 112.967C95.6337 113.064 96.2418 113.217 96.7999 113.424C97.3572 113.622 97.822 113.86 98.1942 114.138C98.5665 114.416 98.7654 114.701 98.791 114.991C98.8038 115.136 98.7547 115.305 98.6436 115.498C98.5317 115.682 98.3922 115.864 98.225 116.043C98.057 116.213 97.8689 116.363 97.6606 116.491C97.4605 116.609 97.2788 116.675 97.1154 116.69C96.8975 116.709 96.6443 116.64 96.356 116.482C96.0766 116.324 95.7639 116.15 95.4179 115.961C95.0801 115.762 94.7125 115.589 94.3152 115.441C93.9178 115.293 93.4967 115.238 93.0518 115.278C92.7613 115.303 92.5271 115.397 92.3492 115.559C92.1796 115.711 92.1061 115.915 92.1285 116.169C92.1485 116.396 92.2779 116.618 92.5166 116.835C92.7545 117.042 93.0613 117.253 93.437 117.467C93.8218 117.68 94.2532 117.903 94.7312 118.135C95.2092 118.368 95.6978 118.617 96.1972 118.884C96.7056 119.151 97.2028 119.445 97.6888 119.769C98.1748 120.092 98.6137 120.451 99.0054 120.847C99.4062 121.241 99.738 121.683 100.001 122.172C100.263 122.653 100.42 123.188 100.472 123.778C100.517 124.286 100.467 124.757 100.322 125.191C100.177 125.625 99.9499 126.006 99.6404 126.335C99.3309 126.665 98.9518 126.931 98.5031 127.136C98.0545 127.34 97.5533 127.466 96.9994 127.515C96.3003 127.577 95.6461 127.525 95.0367 127.359C94.4281 127.202 93.8941 126.957 93.4345 126.622C92.975 126.287 92.5998 125.872 92.309 125.376C92.0273 124.879 91.8592 124.322 91.8048 123.705C91.7344 122.906 91.8238 122.312 92.0733 121.924C92.3318 121.536 92.7698 121.314 93.3871 121.26C93.7685 121.226 94.079 121.272 94.3188 121.397C94.5586 121.522 94.6877 121.689 94.7061 121.898C94.7158 122.007 94.7076 122.122 94.6817 122.243C94.655 122.356 94.6245 122.477 94.5903 122.608C94.5644 122.73 94.5393 122.86 94.515 122.999C94.4998 123.138 94.4982 123.275 94.5102 123.411C94.531 123.648 94.6055 123.87 94.7337 124.078C94.8618 124.286 95.0239 124.464 95.2199 124.612C95.4258 124.767 95.6557 124.884 95.9097 124.963C96.1636 125.041 96.4268 125.068 96.6991 125.044C97.4255 124.98 97.7622 124.648 97.7094 124.049C97.6678 123.577 97.4424 123.148 97.0333 122.764C96.6235 122.37 96.1194 121.998 95.5213 121.648C94.9223 121.289 94.278 120.934 93.5883 120.583C92.9076 120.231 92.2662 119.858 91.664 119.463C91.0619 119.067 90.5527 118.636 90.1364 118.17C89.7193 117.694 89.4847 117.161 89.4327 116.571C89.3895 116.081 89.4497 115.623 89.6134 115.197C89.7862 114.77 90.0369 114.395 90.3653 114.073C90.693 113.743 91.0857 113.475 91.5434 113.27C92.0102 113.064 92.5205 112.936 93.0744 112.888ZM100.773 119.565C100.759 119.411 100.762 119.237 100.782 119.043C100.801 118.849 100.801 118.639 100.781 118.412C100.767 118.257 100.689 118.145 100.545 118.076C100.411 118.005 100.258 117.927 100.085 117.842C99.9132 117.756 99.7522 117.642 99.6024 117.5C99.4617 117.357 99.3785 117.14 99.3529 116.849C99.3345 116.641 99.3706 116.427 99.4611 116.209C99.5607 115.989 99.7119 115.784 99.9146 115.592C100.415 115.145 100.937 114.738 101.481 114.37C102.034 114.001 102.587 113.682 103.14 113.414C103.702 113.144 104.259 112.926 104.812 112.758C105.364 112.591 105.899 112.484 106.417 112.438C107.288 112.362 108.12 112.453 108.911 112.713C109.711 112.962 110.417 113.344 111.03 113.857C111.651 114.36 112.158 114.975 112.551 115.699C112.953 116.414 113.191 117.198 113.266 118.052C113.34 118.887 113.233 119.697 112.945 120.482C112.666 121.257 112.256 121.952 111.715 122.567C111.175 123.182 110.52 123.688 109.749 124.085C108.989 124.491 108.169 124.732 107.288 124.81C106.425 124.886 105.614 124.811 104.853 124.586C104.091 124.36 103.421 124.017 102.84 123.555C102.259 123.085 101.788 122.514 101.426 121.841C101.064 121.159 100.846 120.401 100.773 119.565ZM107.371 122.332C107.753 122.299 108.141 122.187 108.536 121.996C108.931 121.806 109.283 121.551 109.594 121.23C109.912 120.9 110.162 120.512 110.342 120.067C110.531 119.62 110.602 119.129 110.555 118.593C110.507 118.048 110.362 117.548 110.121 117.094C109.88 116.639 109.567 116.255 109.182 115.941C108.806 115.618 108.368 115.377 107.87 115.22C107.38 115.062 106.858 115.007 106.304 115.056C105.296 115.145 104.548 115.476 104.059 116.05C103.569 116.615 103.371 117.438 103.467 118.518C103.519 119.108 103.653 119.65 103.871 120.143C104.096 120.626 104.384 121.04 104.735 121.384C105.085 121.72 105.482 121.973 105.927 122.144C106.382 122.314 106.863 122.377 107.371 122.332ZM113.382 107.377C113.34 106.905 113.447 106.557 113.701 106.334C113.956 106.11 114.397 105.97 115.023 105.915C115.241 105.896 115.434 105.902 115.601 105.933C115.769 105.964 115.912 106.029 116.03 106.128C116.148 106.218 116.247 106.352 116.326 106.528C116.414 106.694 116.493 106.911 116.562 107.179C116.751 107.977 116.944 108.815 117.141 109.695C117.346 110.564 117.541 111.435 117.728 112.306C117.923 113.167 118.107 114.011 118.281 114.837C118.453 115.655 118.608 116.419 118.743 117.13C118.888 117.831 119.002 118.456 119.087 119.007C119.181 119.548 119.242 119.977 119.27 120.295C119.298 120.622 119.291 120.902 119.248 121.134C119.213 121.366 119.129 121.556 118.996 121.705C118.872 121.853 118.699 121.969 118.478 122.053C118.265 122.127 117.995 122.178 117.668 122.207C117.35 122.235 117.088 122.175 116.883 122.029C116.687 121.881 116.575 121.64 116.545 121.304C116.515 120.959 116.447 120.503 116.342 119.935C116.236 119.359 116.107 118.721 115.954 118.021C115.8 117.321 115.629 116.576 115.441 115.788C115.262 114.998 115.074 114.219 114.878 113.449C114.691 112.679 114.507 111.94 114.326 111.233C114.153 110.516 113.996 109.885 113.857 109.339C113.716 108.784 113.603 108.332 113.518 107.983C113.431 107.625 113.386 107.423 113.382 107.377ZM128 111.125C128.005 110.869 128.018 110.657 128.04 110.491C128.07 110.314 128.122 110.172 128.195 110.065C128.276 109.948 128.383 109.861 128.515 109.804C128.647 109.746 128.817 109.708 129.026 109.69C129.689 109.631 130.184 109.689 130.51 109.861C130.844 110.024 131.031 110.318 131.068 110.745C131.075 110.827 131.073 111.01 131.062 111.295C131.059 111.569 131.048 111.914 131.029 112.327C131.01 112.731 130.986 113.182 130.956 113.678C130.935 114.165 130.915 114.661 130.895 115.166C130.834 116.343 130.763 117.662 130.682 119.124C130.63 119.989 130.43 120.624 130.081 121.03C129.742 121.435 129.204 121.67 128.469 121.735C127.915 121.783 127.331 121.693 126.716 121.464C126.101 121.234 125.495 120.903 124.899 120.471C124.302 120.039 123.727 119.527 123.171 118.935C122.624 118.334 122.133 117.691 121.697 117.006C121.261 116.313 120.901 115.599 120.616 114.865C120.341 114.129 120.172 113.403 120.108 112.686C120.037 111.878 120.097 111.264 120.289 110.845C120.489 110.415 120.875 110.175 121.447 110.125C121.847 110.09 122.181 110.088 122.449 110.119C122.716 110.141 122.932 110.209 123.098 110.322C123.272 110.426 123.399 110.575 123.48 110.769C123.571 110.962 123.629 111.209 123.655 111.509C123.673 111.708 123.682 111.909 123.681 112.11C123.68 112.312 123.689 112.512 123.707 112.712C123.747 113.175 123.836 113.657 123.971 114.157C124.115 114.648 124.29 115.126 124.496 115.593C124.702 116.06 124.933 116.502 125.189 116.918C125.445 117.326 125.71 117.682 125.984 117.987C126.257 118.293 126.525 118.53 126.787 118.699C127.058 118.867 127.312 118.941 127.548 118.92C127.711 118.905 127.829 118.84 127.901 118.724C127.983 118.607 128.025 118.416 128.029 118.15L128 111.125ZM134.77 107.125C134.507 107.148 134.254 107.134 134.012 107.082C133.778 107.02 133.568 106.929 133.384 106.808C133.207 106.677 133.061 106.521 132.944 106.339C132.828 106.157 132.759 105.952 132.739 105.725C132.706 105.344 132.828 105.022 133.107 104.76C133.395 104.496 133.793 104.342 134.301 104.297C134.538 104.277 134.769 104.302 134.994 104.374C135.22 104.436 135.42 104.533 135.596 104.664C135.782 104.794 135.933 104.954 136.051 105.145C136.167 105.327 136.235 105.522 136.253 105.731C136.288 106.122 136.17 106.443 135.899 106.696C135.637 106.938 135.261 107.081 134.77 107.125ZM133.271 111.443C133.243 111.125 133.356 110.854 133.611 110.631C133.874 110.397 134.233 110.26 134.686 110.22C135.504 110.148 135.964 110.391 136.068 110.949C136.139 111.336 136.214 111.774 136.294 112.261C136.382 112.747 136.469 113.265 136.554 113.816C136.648 114.357 136.734 114.921 136.814 115.509C136.901 116.087 136.984 116.66 137.061 117.23C137.138 117.791 137.209 118.333 137.274 118.858C137.338 119.383 137.39 119.864 137.428 120.3C137.468 120.754 137.335 121.108 137.028 121.364C136.73 121.619 136.273 121.774 135.655 121.828C135.374 121.853 135.145 121.805 134.97 121.683C134.804 121.569 134.71 121.386 134.688 121.131C134.577 119.878 134.442 118.71 134.283 117.626C134.131 116.532 133.982 115.562 133.834 114.715C133.695 113.867 133.569 113.164 133.456 112.607C133.351 112.04 133.289 111.652 133.271 111.443ZM139.262 109.652C139.25 109.516 139.297 109.379 139.404 109.241C139.51 109.095 139.654 108.963 139.836 108.847C140.017 108.721 140.223 108.616 140.453 108.531C140.692 108.437 140.934 108.379 141.179 108.358C141.315 108.346 141.432 108.372 141.529 108.436C141.635 108.5 141.734 108.633 141.825 108.836C141.915 109.029 142.004 109.31 142.091 109.677C142.187 110.035 142.288 110.506 142.394 111.091C142.447 111.27 142.491 111.408 142.527 111.505C142.571 111.593 142.621 111.634 142.675 111.629C142.757 111.622 142.826 111.474 142.883 111.186C143.377 109.211 144.25 108.169 145.503 108.059C146.084 108.007 146.627 108.142 147.131 108.464C147.644 108.785 148.142 109.34 148.623 110.13C149.113 110.911 149.603 111.956 150.094 113.267C150.584 114.569 151.101 116.184 151.646 118.113C151.673 118.211 151.695 118.3 151.711 118.381C151.728 118.462 151.739 118.539 151.745 118.612C151.764 118.82 151.73 119.006 151.644 119.17C151.566 119.323 151.454 119.456 151.308 119.57C151.162 119.674 150.995 119.757 150.809 119.82C150.623 119.891 150.435 119.935 150.244 119.952C149.863 119.985 149.582 119.969 149.402 119.902C149.232 119.835 149.114 119.69 149.048 119.467C148.663 118.11 148.297 116.907 147.948 115.858C147.608 114.809 147.284 113.931 146.975 113.227C146.674 112.512 146.388 111.974 146.119 111.614C145.849 111.253 145.596 111.084 145.36 111.104C145.124 111.125 144.915 111.295 144.732 111.613C144.558 111.921 144.403 112.397 144.268 113.04C144.133 113.683 144.017 114.494 143.92 115.472C143.832 116.45 143.765 117.613 143.72 118.962C143.706 119.33 143.55 119.636 143.252 119.882C142.953 120.128 142.559 120.273 142.069 120.316C141.742 120.345 141.486 120.299 141.302 120.178C141.117 120.057 141.005 119.879 140.966 119.644C140.718 117.763 140.49 116.219 140.283 115.011C140.084 113.793 139.912 112.82 139.765 112.092C139.618 111.355 139.501 110.807 139.414 110.448C139.328 110.09 139.277 109.825 139.262 109.652ZM159.532 108.235C159.968 108.197 160.384 108.197 160.781 108.235C161.177 108.264 161.537 108.305 161.862 108.359C162.187 108.404 162.465 108.452 162.699 108.505C162.931 108.548 163.098 108.566 163.197 108.557C163.279 108.55 163.353 108.502 163.418 108.414C163.483 108.317 163.565 108.214 163.665 108.104C163.765 107.995 163.903 107.891 164.077 107.793C164.251 107.686 164.487 107.62 164.787 107.593C165.132 107.563 165.412 107.63 165.628 107.794C165.843 107.949 165.962 108.158 165.985 108.421C166.278 111.744 166.414 114.578 166.392 116.922C166.369 119.257 166.167 121.174 165.787 122.671C165.407 124.169 164.841 125.28 164.091 126.005C163.341 126.73 162.389 127.143 161.236 127.245C160.709 127.291 160.149 127.222 159.557 127.036C158.973 126.85 158.428 126.591 157.924 126.261C157.419 125.939 156.993 125.569 156.645 125.152C156.307 124.733 156.119 124.32 156.083 123.911C156.071 123.775 156.13 123.61 156.259 123.415C156.388 123.221 156.55 123.028 156.743 122.837C156.937 122.646 157.142 122.482 157.359 122.344C157.575 122.206 157.765 122.13 157.929 122.115C158.101 122.1 158.252 122.155 158.382 122.281C158.513 122.416 158.638 122.583 158.756 122.783C158.883 122.983 159.012 123.2 159.143 123.436C159.274 123.68 159.431 123.9 159.613 124.094C159.795 124.289 160.01 124.443 160.258 124.559C160.507 124.683 160.808 124.73 161.162 124.699C163.141 124.524 164.037 121.398 163.849 115.321C163.825 115.049 163.736 114.919 163.581 114.933C163.454 114.944 163.36 115.016 163.298 115.15C162.547 116.378 161.624 117.333 160.532 118.015C159.447 118.687 158.21 119.085 156.821 119.207C156.177 119.264 155.573 119.221 155.012 119.078C154.45 118.927 153.953 118.696 153.523 118.386C153.102 118.067 152.761 117.676 152.5 117.214C152.239 116.743 152.083 116.217 152.032 115.635C151.981 115.063 152.032 114.492 152.183 113.92C152.342 113.339 152.581 112.787 152.901 112.265C153.23 111.733 153.629 111.235 154.101 110.773C154.573 110.31 155.095 109.903 155.668 109.55C156.24 109.189 156.85 108.897 157.498 108.675C158.155 108.444 158.833 108.297 159.532 108.235ZM157.022 116.664C158.266 116.554 159.371 116.063 160.338 115.191C161.303 114.31 162.087 113.088 162.691 111.525C162.704 111.469 162.714 111.427 162.721 111.399C162.727 111.362 162.728 111.325 162.725 111.289C162.717 111.198 162.613 111.111 162.413 111.028C162.214 110.945 161.957 110.881 161.642 110.835C161.326 110.79 160.967 110.762 160.564 110.752C160.168 110.732 159.771 110.74 159.372 110.775C158.727 110.832 158.115 110.995 157.535 111.266C156.955 111.537 156.449 111.874 156.018 112.278C155.587 112.682 155.251 113.128 155.011 113.616C154.77 114.104 154.672 114.598 154.716 115.097C154.763 115.633 154.996 116.042 155.414 116.325C155.842 116.608 156.378 116.721 157.022 116.664ZM175.019 117.328C174.756 117.351 174.503 117.332 174.26 117.271C174.025 117.21 173.816 117.118 173.632 116.997C173.446 116.867 173.295 116.711 173.179 116.53C173.071 116.347 173.007 116.147 172.988 115.929C172.955 115.547 173.077 115.225 173.356 114.963C173.644 114.7 174.042 114.546 174.551 114.501C174.787 114.48 175.018 114.505 175.243 114.577C175.469 114.639 175.669 114.736 175.846 114.867C176.031 114.997 176.182 115.153 176.299 115.335C176.415 115.517 176.483 115.712 176.501 115.921C176.536 116.32 176.419 116.646 176.148 116.899C175.886 117.142 175.51 117.285 175.019 117.328ZM169.439 107.897C169.303 108.43 169.017 108.716 168.581 108.755C168.409 108.77 168.229 108.749 168.041 108.693L167.321 108.468C166.82 108.292 166.553 108.01 166.519 107.619C166.504 107.456 166.533 107.266 166.605 107.049C168.094 102.965 170.704 100.758 174.435 100.429C175.243 100.358 175.994 100.42 176.689 100.615C177.391 100.8 178.007 101.093 178.537 101.495C179.066 101.897 179.495 102.394 179.821 102.987C180.157 103.58 180.358 104.244 180.422 104.979C180.481 105.642 180.414 106.289 180.223 106.919C180.031 107.539 179.726 108.129 179.308 108.687C178.9 109.245 178.378 109.762 177.743 110.239C177.117 110.715 176.394 111.131 175.575 111.487C175.416 111.556 175.251 111.598 175.078 111.613C174.706 111.646 174.357 111.526 174.031 111.253L173.853 111.104C173.588 110.898 173.445 110.678 173.424 110.441C173.409 110.269 173.458 110.104 173.573 109.948C173.687 109.792 173.867 109.652 174.112 109.53C174.823 109.184 175.41 108.843 175.875 108.51C176.349 108.175 176.722 107.845 176.996 107.519C177.278 107.192 177.468 106.859 177.566 106.521C177.674 106.183 177.711 105.827 177.678 105.455C177.644 105.064 177.526 104.709 177.323 104.388C177.13 104.067 176.878 103.796 176.566 103.576C176.262 103.347 175.909 103.181 175.506 103.08C175.112 102.968 174.697 102.931 174.261 102.97C173.099 103.072 172.123 103.524 171.334 104.326C170.544 105.128 169.913 106.318 169.439 107.897Z" fill="white"/>
<path d="M37 112C45.7 109.54 68.375 106.359 78.625 105.077C89.75 103.154 118 98.8462 142 97" stroke="white" stroke-width="2" stroke-linecap="round" stroke-linejoin="round"/>
<path d="M41 115C49.6413 112.441 57.637 112.333 67.8178 111C78.8677 109 109.162 104.92 133 103" stroke="white" stroke-width="2" stroke-linecap="round" stroke-linejoin="round"/>
<path d="M17.2567 63.0277C26.1079 48.0035 42.0991 39.2862 57.9672 31.359C86.0419 17.3339 119.717 6.1885 152.163 15.4134C176.248 22.2611 200.213 35.2907 215.573 54.093C227.969 69.268 225.102 88.349 218.093 104.408C208.771 125.766 191.308 139.815 168.187 148.276C136.097 160.019 97.4535 164.739 63.6872 154.835C43.352 148.87 18.8262 138.11 11.4678 118.027C9.34966 112.246 7.78712 106.797 7.07887 100.76C5.6101 88.239 10.3546 78.9307 10.6832 75.2778" stroke="white" stroke-width="2" stroke-linecap="round" stroke-linejoin="round"/>
</svg>
